<svg width="99" height="32" viewBox="0 0 99 32" fill="none" xmlns="http://www.w3.org/2000/svg">
<path d="M18.9816 25.7749C18.9816 25.7749 19.4879 26.2457 19.3943 26.511C19.1794 27.1214 18.2178 27.4051 17.5932 27.2363C16.5963 26.9668 15.6847 25.8214 15.6936 24.7888C15.7067 23.2733 17.2566 22.0466 18.543 21.2455C19.8673 20.4209 21.5498 20.1969 23.1094 20.2226C24.8074 20.2509 26.6195 20.5722 28.0411 21.5012C28.8323 22.0183 29.4855 22.8362 29.7946 23.7294C29.9698 24.2357 29.7946 25.3367 29.7946 25.3367C29.7946 25.3367 31.1897 23.4106 31.6942 22.3412C32.2953 21.0665 33.1782 19.7218 33.0092 18.3227C32.9319 17.6821 32.5083 17.06 31.9863 16.6787C30.3121 15.461 28.028 15.2497 25.9589 15.181C23.82 15.1102 21.6449 15.566 19.6392 16.3135C18.2729 16.8216 16.9352 17.54 15.8766 18.5417C14.6842 19.6698 13.5415 21.0424 13.1368 22.6331C12.8744 23.6641 12.9305 24.8716 13.4291 25.8114C13.8793 26.6599 14.7663 27.2799 15.6573 27.638C16.5299 27.9888 17.5752 28.1462 18.4702 27.8572C19.0623 27.6662 19.8753 27.2736 19.8949 26.6514C19.9237 25.7357 18.9817 25.7746 18.9817 25.7746L18.9816 25.7749Z" fill="#6D6D6D"/>
<path d="M18.4861 26.3142C18.4861 26.3142 18.354 25.9069 18.4669 25.7608C18.6501 25.5241 19.0628 25.4599 19.3446 25.5649C19.7514 25.7189 20.1156 26.1809 20.1164 26.6151C20.1173 27.1729 19.6273 27.7141 19.1301 27.9668C18.0445 28.5186 16.629 28.3615 15.477 27.9668C14.5 27.6322 13.5429 26.9631 13.0295 26.0672C12.2842 24.7676 12.1102 23.0706 12.445 21.6105C12.7869 20.1193 13.8974 18.8701 14.9658 17.7747C16.1142 16.597 17.504 15.5988 19.0207 14.9618C20.7582 14.2323 22.6941 14.0374 24.5735 13.9023C26.1904 13.7862 27.8396 13.8198 29.4323 14.1215C30.4312 14.3109 31.4419 14.5924 32.3181 15.1078C32.6627 15.3106 33.2086 15.9116 33.2086 15.9116C33.2086 15.9116 32.969 12.8364 32.5008 11.3817C32.0954 10.1221 31.665 8.75515 30.7109 7.83846C30.0353 7.18925 29.0698 6.86803 28.1538 6.672C26.4137 6.29997 24.5699 6.38944 22.8204 6.70588C20.7767 7.07545 18.8018 7.87157 16.9707 8.85201C15.2568 9.76977 13.6426 10.9255 12.2627 12.2952C11.1324 13.4173 10.0665 14.6783 9.4133 16.131C8.75515 17.5947 8.41623 19.2385 8.42701 20.8433C8.43563 22.1284 8.70141 23.4522 9.26716 24.606C9.79642 25.6855 10.6446 26.6136 11.5687 27.3824C12.3728 28.0514 13.3189 28.5734 14.3084 28.9121C15.2407 29.2312 16.2471 29.4111 17.2311 29.355C18.3822 29.2896 19.6921 29.1995 20.5699 28.4522C21.0826 28.0155 21.4533 27.2819 21.4011 26.6105C21.3644 26.1401 21.0274 25.6742 20.6262 25.4257C20.1881 25.1541 19.5883 24.9868 19.0904 25.1205C18.6284 25.2443 18.241 25.4921 18.1826 25.8781C18.1549 26.0614 18.4881 26.3144 18.4881 26.3144L18.4861 26.3142Z" fill="#6D6D6D"/>
<path d="M18.6402 26.6402C18.6402 26.6402 17.9319 26.497 17.7474 26.2322C17.4825 25.8492 17.501 25.3092 17.761 24.9233C18.189 24.2879 19.1057 24.0445 19.8712 24.0147C21.1655 23.9616 22.7469 24.2426 23.5538 25.2559C24.2272 26.1017 24.3633 27.519 23.8744 28.4835C23.3838 29.4513 22.1106 29.8272 21.0712 30.1385C19.4442 30.6259 17.6595 30.6513 15.9816 30.3868C14.2483 30.1134 12.5554 29.4393 11.0577 28.5235C9.40758 27.5158 7.89434 26.196 6.75452 24.6341C5.53186 22.9587 4.61902 20.9946 4.18909 18.9673C3.80027 17.1323 3.85447 15.1792 4.23066 13.3402C4.66072 11.2558 5.48965 9.27431 6.67183 7.50463C7.57374 6.16032 8.7867 5.01003 10.1061 4.0704C11.2924 3.22654 12.6576 2.63215 14.0369 2.16711C15.1569 1.78938 16.3321 1.52606 17.5124 1.46369C18.9788 1.38624 20.4648 1.55916 21.8983 1.87746C23.0994 2.14416 24.2851 2.54345 25.3738 3.1186C26.6565 3.79722 28.8909 5.68403 28.8909 5.68403C28.8909 5.68403 24.3603 5.25102 22.1462 5.64246C19.5377 6.10396 16.9622 7.03882 14.6986 8.4147C13.013 9.43918 11.5265 10.8323 10.3127 12.3868C9.34059 13.6318 8.56711 15.0637 8.0799 16.566C7.58436 18.0905 7.32258 19.7259 7.41775 21.3243C7.48242 22.4062 7.76576 23.4967 8.24528 24.4687C8.72356 25.4388 9.41913 26.3201 10.2314 27.0341C11.2868 27.9593 12.5084 28.6754 13.8312 29.1444C14.8965 29.5195 16.0532 29.655 17.1827 29.6408C18.1485 29.6285 19.1778 29.5842 20.0377 29.1444C20.7583 28.7757 21.5292 28.2205 21.7754 27.4479C21.9759 26.8204 21.8544 26.0015 21.4234 25.503C20.9981 25.0112 20.2245 24.8825 19.5743 24.8825C19.097 24.8823 18.5623 25.0083 18.2169 25.3376C18.0241 25.5215 17.9248 25.7576 17.9952 26.0144C18.0752 26.3058 18.641 26.6412 18.641 26.6412L18.6415 26.6407L18.6402 26.6402Z" fill="#6D6D6D"/>
<path d="M54.012 15.9318C54.012 15.3787 53.9591 14.8906 53.8532 14.4675C53.7474 14.0365 53.544 13.6297 53.243 13.2473C52.942 12.865 52.5678 12.5721 52.1203 12.3687C51.681 12.1654 51.2092 12.0638 50.7048 12.0638C49.639 12.0638 48.7972 12.4381 48.1792 13.1865C47.5692 13.9268 47.2641 14.9193 47.2641 16.1641C47.2641 17.3599 47.5896 18.2995 48.2405 18.983C48.8505 19.6176 49.6354 19.9349 50.5952 19.9349C51.7423 19.9349 52.633 19.4386 53.2674 18.4461C53.7636 17.6735 54.0117 16.8355 54.0117 15.9324L54.012 15.9318ZM50.5587 20.3365C49.2001 20.3365 48.1101 19.946 47.2886 19.1651C46.4751 18.376 46.0684 17.3265 46.0684 16.0167C46.0684 14.7071 46.5036 13.6453 47.374 12.8315C48.2118 12.0506 49.2816 11.6602 50.5834 11.6602C51.8524 11.6602 52.9099 11.9895 53.756 12.6483C54.724 13.4048 55.208 14.4666 55.208 15.8335C55.208 17.184 54.7768 18.2741 53.9145 19.1036C53.0521 19.9271 51.9334 20.3388 50.5584 20.3388L50.5587 20.3365Z" fill="#6D6D6D"/>
<path d="M64.7134 11.8596H64.9696C65.1404 13.4785 65.2462 14.471 65.2868 14.8372C65.417 16.033 65.5227 16.9645 65.604 17.6316C65.6916 18.2904 65.8096 19.1486 65.958 20.2064L65.3846 20.1696L64.8111 20.2064C64.7379 19.3929 64.6678 18.6158 64.6009 17.8753C64.544 17.135 64.4739 16.4028 64.3906 15.6787C64.3174 14.9548 64.2473 14.3649 64.1804 13.9092C63.6842 14.804 63.253 15.585 62.8869 16.2522C62.4639 17.033 62.11 17.7083 61.8251 18.2779C61.5161 18.9042 61.2354 19.5021 60.9831 20.0715H60.8517L60.1805 18.6926C59.8875 18.0825 59.6272 17.5569 59.3994 17.1157C59.1716 16.6683 58.891 16.1273 58.5574 15.4929C58.2727 14.9641 57.992 14.4354 57.7153 13.9066C57.5752 15.07 57.441 16.2454 57.3127 17.433C57.1825 18.6208 57.1175 19.5442 57.1175 20.2029L56.6904 20.1661L56.251 20.2029C56.4218 19.1454 56.6455 17.6445 56.9222 15.7003C57.199 13.7478 57.3658 12.4665 57.4226 11.8564H57.7379C58.1609 12.6862 58.5067 13.3655 58.7752 13.8943C59.1006 14.5206 59.486 15.2405 59.9316 16.054C60.4197 16.9405 60.8386 17.6727 61.1883 18.2505C62.3598 16.1192 63.5312 13.9878 64.7026 11.8564L64.7134 11.8596ZM67.7288 20.2108V11.8641L68.2657 11.9009L68.8027 11.8641V20.2108L68.2657 20.174L67.7288 20.2108ZM78.2579 11.8596V20.2064H77.8919L77.2574 19.4621L71.986 13.6293H71.8641V20.2066L71.5225 20.1698L71.1808 20.2066V11.8599H71.6539L77.4501 18.1441H77.572V11.8599L77.9137 11.8967L78.2579 11.8596ZM80.5444 20.2108V11.8641H84.8762L84.8394 12.2302L84.8762 12.5962C84.6322 12.5472 84.4329 12.5146 84.2783 12.4985C84.1238 12.474 83.957 12.4617 83.7779 12.4617L82.5577 12.4372H81.6182V15.4976H83.5096C83.6642 15.4976 83.8676 15.4895 84.1199 15.4732C84.3802 15.4487 84.5379 15.4364 84.5929 15.4364L84.5561 15.7536L84.5929 16.0953C84.4464 16.0953 84.243 16.0871 83.9827 16.0708C83.7223 16.0463 83.5646 16.034 83.5096 16.034H81.6182V20.2074L81.0813 20.1706L80.5444 20.2108Z" fill="#6D6D6D"/>
<path d="M94.013 15.9318C94.013 15.3787 93.96 14.8906 93.8542 14.4675C93.7484 14.0365 93.545 13.6297 93.244 13.2473C92.943 12.865 92.5687 12.5721 92.1213 12.3687C91.682 12.1654 91.2102 12.0638 90.7058 12.0638C89.64 12.0638 88.7982 12.4381 88.1802 13.1865C87.5701 13.9268 87.2651 14.9193 87.2651 16.1641C87.2651 17.3599 87.5906 18.2995 88.2414 18.983C88.8515 19.6176 89.6364 19.9349 90.5962 19.9349C91.7433 19.9349 92.634 19.4386 93.2684 18.4461C93.7646 17.6735 94.0127 16.8355 94.0127 15.9324L94.013 15.9318ZM90.5597 20.3365C89.2011 20.3365 88.1111 19.946 87.2896 19.1651C86.4761 18.376 86.0693 17.3265 86.0693 16.0167C86.0693 14.7071 86.5045 13.6453 87.375 12.8315C88.2128 12.0506 89.2826 11.6602 90.5844 11.6602C91.8534 11.6602 92.9109 11.9895 93.757 12.6483C94.725 13.4048 95.209 14.4666 95.209 15.8335C95.209 17.184 94.7778 18.2741 93.9155 19.1036C93.0531 19.9271 91.9344 20.3388 90.5594 20.3388L90.5597 20.3365Z" fill="#6D6D6D"/>
<path d="M42.4313 14.5195L45.2013 11.8593L44.7279 11.8938L44.2399 11.857L41.2373 14.9555C41.156 15.0287 41.0788 15.1019 41.0055 15.1752C40.8019 15.3705 40.6677 15.4967 40.6029 15.5536C40.536 15.6025 40.4659 15.6351 40.3927 15.6514C40.3275 15.6675 40.2909 15.6594 40.2828 15.6269V11.8564L39.7459 11.8932L39.209 11.8564V20.2032L39.7459 20.1664L40.2828 20.2032V15.9447C40.2828 15.9361 40.2991 15.9279 40.3317 15.9202C40.3969 15.9285 40.4498 15.9488 40.4904 15.9812L43.1506 19.0928C43.2951 19.2656 43.4375 19.4496 43.5776 19.6447C43.7243 19.8319 43.8627 20.019 43.9929 20.2061L44.6762 20.1693L45.3474 20.2061V20.1451L44.3592 18.9249C43.3667 17.8103 42.3783 16.6916 41.394 15.5689L42.4313 14.5195Z" fill="#6D6D6D"/>
</svg>
