<svg width="71" height="32" viewBox="0 0 71 32" fill="none" xmlns="http://www.w3.org/2000/svg">
<path d="M36.7921 24.3351C36.8746 25.3114 36.8334 26.2796 36.8416 27.2479C36.8416 27.4187 36.8251 27.4269 36.6682 27.435C36.4701 27.435 36.2719 27.435 36.0738 27.435C35.9169 27.435 35.9004 27.4187 35.9004 27.2723C35.9004 25.9867 35.9004 24.7012 35.9004 23.4075C35.9004 23.2448 35.9169 23.2204 36.0738 23.2204C36.3875 23.2204 36.7095 23.2285 37.0232 23.2204C37.1719 23.2123 37.2379 23.2774 37.2874 23.3994C37.659 24.3269 38.0966 25.2301 38.3855 26.1901C38.3938 26.2146 38.402 26.239 38.4103 26.2634C38.4516 26.2146 38.4268 26.1576 38.4268 26.1088C38.3525 25.1894 38.4103 24.2781 38.3938 23.3587C38.3938 23.2611 38.4268 23.2204 38.5341 23.2204C38.7571 23.2204 38.98 23.2204 39.2111 23.2204C39.302 23.2204 39.3433 23.253 39.3433 23.3506C39.3433 23.3913 39.3433 23.432 39.3433 23.4645C39.3433 24.7012 39.3433 25.9379 39.3433 27.1746C39.3433 27.2072 39.3433 27.2397 39.3433 27.2723C39.335 27.4025 39.3102 27.435 39.1781 27.435C39.0543 27.4431 38.9304 27.435 38.7983 27.435C38.6332 27.435 38.4681 27.4269 38.303 27.435C38.1461 27.4431 38.0635 27.378 38.0057 27.2397C37.7746 26.7027 37.5351 26.1657 37.2957 25.6287C37.1306 25.2626 36.982 24.8883 36.8664 24.4978C36.8499 24.4408 36.8251 24.392 36.7921 24.3351Z" fill="#818A95"/>
<path d="M59.6206 13.8474C59.6454 13.6846 59.6041 13.5544 59.6041 13.4243C59.5958 12.5944 59.5958 11.7563 59.5958 10.9264C59.5958 10.7962 59.6124 10.7881 59.7445 10.78C59.9591 10.78 60.1655 10.78 60.3802 10.78C60.5123 10.78 60.5288 10.8044 60.5371 10.9264C60.5371 10.9671 60.5371 11.0078 60.5371 11.0403C60.5371 12.2608 60.5371 13.4894 60.5371 14.7098C60.5371 14.7342 60.5371 14.7586 60.5371 14.7912C60.5371 14.9783 60.5205 14.9864 60.3307 14.9864C60.0417 14.9864 59.7527 14.9783 59.4555 14.9864C59.3316 14.9864 59.2573 14.9539 59.2078 14.84C58.8198 13.9043 58.3409 13.0012 58.0437 12.033C58.0272 11.9923 58.0106 11.9516 57.9776 11.8784C58.0602 12.8466 58.0272 13.7904 58.0354 14.7342C58.0354 14.9946 58.0354 14.9946 57.7795 14.9946C57.6226 14.9946 57.4657 14.9946 57.3006 14.9946C57.0859 14.9946 57.0859 14.9946 57.0859 14.7749C57.0859 14.3355 57.0859 13.888 57.0859 13.4487C57.0859 12.635 57.0859 11.8214 57.0859 11.0078C57.0859 10.7881 57.1025 10.78 57.3254 10.78C57.6061 10.78 57.8951 10.7881 58.1758 10.78C58.3409 10.7718 58.4235 10.8369 58.4895 10.9834C58.8528 11.9028 59.2904 12.7896 59.5711 13.7416C59.5876 13.7741 59.6041 13.7985 59.6206 13.8474Z" fill="#818A95"/>
<path d="M51.0503 26.2721C50.9842 25.3121 51.0255 24.3601 51.0173 23.4163C51.0173 23.2129 51.0173 23.2129 51.2319 23.2129C51.4053 23.2129 51.5787 23.2129 51.7438 23.2129C51.9585 23.2129 51.9585 23.2129 51.9585 23.4326C51.9585 23.5872 51.9585 23.7417 51.9585 23.9045C51.9585 24.9866 51.9585 26.0606 51.9585 27.1427C51.9585 27.1915 51.9585 27.2322 51.9585 27.281C51.9502 27.4031 51.9255 27.4275 51.8016 27.4275C51.4879 27.4356 51.1659 27.4275 50.8521 27.4275C50.7366 27.4275 50.6788 27.3543 50.6375 27.2566C50.4311 26.7766 50.2164 26.3047 50.01 25.8246C49.8119 25.3771 49.6137 24.9296 49.4816 24.4577C49.4734 24.4252 49.4486 24.3927 49.4238 24.3601C49.4486 24.6693 49.4568 24.9785 49.4568 25.2876C49.4568 25.9467 49.4568 26.5976 49.4568 27.2566C49.4568 27.4112 49.4403 27.4275 49.2917 27.4275C49.0936 27.4275 48.8954 27.4275 48.6973 27.4275C48.5321 27.4275 48.5239 27.4112 48.5156 27.2485C48.5156 26.7115 48.5156 26.1664 48.5156 25.6294C48.5156 24.9215 48.5156 24.2137 48.5156 23.5058C48.5156 23.457 48.5156 23.4163 48.5156 23.3675C48.5239 23.2454 48.5487 23.221 48.6725 23.221C49.011 23.221 49.3495 23.221 49.6798 23.221C49.8119 23.221 49.8614 23.3024 49.9027 23.4C50.0761 23.8231 50.2577 24.2543 50.4393 24.6774C50.6457 25.1656 50.8439 25.6456 50.9925 26.1582C51.0173 26.1908 51.0338 26.2315 51.0503 26.2721Z" fill="#818A95"/>
<path d="M49.0601 12.7822C49.0683 12.5951 49.027 12.2941 49.0848 11.993C49.2252 11.2689 49.6875 10.8295 50.4306 10.74C50.7526 10.6993 51.0746 10.6993 51.3883 10.8051C51.8672 10.9516 52.1644 11.277 52.3296 11.7327C52.3873 11.8954 52.3626 11.9361 52.1892 11.9849C51.9993 12.0418 51.8094 12.0988 51.6195 12.1476C51.4957 12.1801 51.4792 12.172 51.4296 12.0581C51.2397 11.635 50.7278 11.4804 50.3233 11.7327C50.1416 11.8466 50.0508 12.0256 50.0508 12.229C50.0426 12.6765 50.0343 13.124 50.0508 13.5715C50.0673 13.9295 50.3068 14.1329 50.67 14.1654C50.7856 14.1735 50.9095 14.1735 51.0251 14.1491C51.3966 14.0678 51.4957 13.7749 51.4874 13.4982C51.4874 13.4331 51.4461 13.425 51.3966 13.425C51.248 13.425 51.1076 13.425 50.959 13.425C50.8021 13.425 50.7856 13.4169 50.7856 13.2623C50.7856 13.1077 50.7856 12.9531 50.7856 12.7904C50.7856 12.587 50.7856 12.5788 50.992 12.5788C51.3718 12.5788 51.7434 12.5788 52.1231 12.5788C52.1809 12.5788 52.2387 12.5788 52.3048 12.5788C52.3956 12.5788 52.4369 12.6195 52.4369 12.709C52.4286 13.0507 52.4451 13.3843 52.4286 13.726C52.3956 14.3037 51.9828 14.8 51.3966 14.979C50.9177 15.1255 50.4389 15.1092 49.9765 14.9302C49.3738 14.6943 49.1096 14.2224 49.0601 13.6121C49.0436 13.368 49.0601 13.124 49.0601 12.7822Z" fill="#818A95"/>
<path d="M61.3379 12.8878C61.3544 12.603 61.3214 12.3101 61.3709 12.0172C61.4948 11.2849 61.9819 10.8211 62.7332 10.7398C63.0635 10.7072 63.3937 10.7072 63.7157 10.813C64.1863 10.9757 64.4835 11.3012 64.6321 11.765C64.6734 11.9033 64.6569 11.9358 64.5166 11.9765C64.3184 12.0335 64.1285 12.0904 63.9304 12.1474C63.79 12.188 63.7735 12.1799 63.724 12.0497C63.5423 11.6185 62.9644 11.472 62.5846 11.7568C62.4195 11.8789 62.3534 12.0579 62.3452 12.2531C62.3369 12.6844 62.3286 13.1156 62.3452 13.5387C62.3617 13.9455 62.6176 14.157 63.0304 14.1652C63.08 14.1652 63.1212 14.1652 63.1708 14.1652C63.5753 14.1489 63.7983 13.8967 63.79 13.5061C63.79 13.4329 63.757 13.4166 63.6909 13.4166C63.5423 13.4166 63.402 13.4166 63.2533 13.4166C63.0882 13.4166 63.08 13.4085 63.08 13.2539C63.08 13.0749 63.08 12.904 63.08 12.725C63.08 12.5949 63.0965 12.5704 63.2203 12.5704C63.6662 12.5704 64.1203 12.5704 64.5661 12.5704C64.6982 12.5704 64.723 12.5949 64.723 12.7169C64.723 13.0261 64.7312 13.3434 64.7147 13.6526C64.6734 14.336 64.2441 14.8405 63.5753 15.0032C63.146 15.109 62.7084 15.0927 62.2874 14.93C61.7755 14.7428 61.4865 14.3604 61.3792 13.8397C61.3131 13.5305 61.3544 13.2132 61.3379 12.8878Z" fill="#818A95"/>
<path d="M51.3554 19.446C51.1902 19.6494 51.0499 19.8284 50.9095 20.0074C50.8682 20.0562 50.8765 20.1131 50.8765 20.1701C50.8765 20.463 50.8765 20.7559 50.8765 21.0488C50.8765 21.2034 50.86 21.2197 50.7031 21.2197C50.4884 21.2197 50.2655 21.2197 50.0509 21.2197C49.894 21.2197 49.8857 21.2034 49.8857 21.0488C49.8857 19.7551 49.8857 18.4615 49.8857 17.1678C49.8857 17.0132 49.894 17.0132 50.0344 17.0051C50.2573 17.0051 50.4802 17.0051 50.7031 17.0051C50.86 17.0051 50.8682 17.0132 50.8682 17.1759C50.8682 17.6153 50.8682 18.0628 50.8682 18.5022C50.8682 18.5672 50.8682 18.6323 50.8682 18.7056C50.9343 18.7056 50.9591 18.6486 50.9838 18.6079C51.3554 18.1279 51.7269 17.6478 52.0819 17.1597C52.1645 17.0458 52.2553 16.9969 52.3956 17.0051C52.6186 17.0132 52.8415 17.0051 53.0644 17.0051C53.1139 17.0051 53.1717 16.9888 53.2048 17.0458C53.2295 17.1027 53.1882 17.1434 53.1552 17.1841C52.891 17.5177 52.6268 17.8513 52.3626 18.1767C52.2635 18.2988 52.1727 18.4289 52.0654 18.5428C51.9993 18.6161 51.9993 18.6812 52.0489 18.7625C52.3709 19.3646 52.6846 19.9748 52.9983 20.5769C53.0727 20.7234 53.1552 20.878 53.2295 21.0244C53.2873 21.1464 53.2543 21.1953 53.1222 21.2034C52.8662 21.2115 52.6103 21.2034 52.3544 21.2034C52.2388 21.2034 52.1975 21.1302 52.1562 21.0488C51.9416 20.6095 51.7269 20.1701 51.5122 19.7389C51.4709 19.6575 51.4214 19.568 51.3554 19.446Z" fill="#818A95"/>
<path d="M41.5063 19.1115C41.5063 18.4932 41.5063 17.8748 41.5063 17.2565C41.5063 17.2076 41.5063 17.167 41.5063 17.1181C41.5063 17.0368 41.5476 16.9961 41.6302 16.9961C41.6632 16.9961 41.6962 16.9961 41.7292 16.9961C42.4805 16.9961 43.2319 16.9961 43.9832 16.9961C44.0162 16.9961 44.0492 16.9961 44.0823 16.9961C44.1566 16.9961 44.1896 17.0286 44.1896 17.1019C44.1896 17.3134 44.1896 17.5331 44.1896 17.7446C44.1896 17.8423 44.1318 17.8667 44.0492 17.8667C43.8015 17.8667 43.5456 17.8667 43.2979 17.8667C43.075 17.8667 42.8521 17.8748 42.6209 17.8667C42.5136 17.8667 42.4888 17.8992 42.4888 18.005C42.4971 18.184 42.4971 18.3549 42.4888 18.5339C42.4888 18.6315 42.5218 18.6559 42.6126 18.6559C42.9924 18.6559 43.3805 18.6559 43.7603 18.6559C43.8098 18.6559 43.8511 18.6559 43.9006 18.6559C43.9749 18.6559 44.0162 18.6884 44.0162 18.7617C44.0162 18.9732 44.0162 19.1766 44.0162 19.3882C44.0162 19.4777 43.9584 19.4939 43.8841 19.4939C43.6447 19.4939 43.4052 19.4939 43.1741 19.4939C42.9924 19.4939 42.8025 19.5021 42.6209 19.4939C42.5136 19.4858 42.4888 19.5346 42.4888 19.6322C42.4971 19.8357 42.4971 20.0391 42.4888 20.2343C42.4888 20.332 42.5301 20.3564 42.6209 20.3482C43.0585 20.3482 43.4878 20.3482 43.9254 20.3482C43.9749 20.3482 44.0162 20.3482 44.0657 20.3482C44.1566 20.3401 44.1978 20.3808 44.1978 20.4703C44.1978 20.6818 44.1978 20.8852 44.1978 21.0968C44.1978 21.1944 44.1483 21.227 44.0657 21.227C44.0327 21.227 43.9997 21.227 43.9667 21.227C43.2236 21.227 42.4888 21.227 41.7457 21.227C41.498 21.227 41.498 21.227 41.498 20.991C41.5063 20.3564 41.5063 19.738 41.5063 19.1115Z" fill="#818A95"/>
<path d="M56.3924 8.85175C56.12 8.85175 55.8558 8.81107 55.5998 8.7053C55.2283 8.54258 54.9889 8.25781 54.8733 7.8754C54.832 7.72895 54.8403 7.70454 54.9806 7.65572C55.1705 7.59063 55.3687 7.53368 55.5668 7.46859C55.6659 7.43604 55.7154 7.46045 55.7402 7.55809C55.8145 7.86726 56.0374 7.9649 56.3264 7.98117C56.475 7.98931 56.6154 7.97304 56.7557 7.91608C56.8961 7.85913 56.9869 7.76149 56.9951 7.61504C57.0034 7.46859 56.9126 7.37909 56.7887 7.314C56.6401 7.23263 56.4915 7.18382 56.3346 7.12686C56.087 7.03736 55.8393 6.94786 55.6081 6.81768C55.1705 6.5736 54.9476 6.20746 54.9724 5.71115C54.9971 5.22297 55.2531 4.87311 55.6824 4.66971C56.2273 4.40934 56.7805 4.42562 57.3254 4.67784C57.6226 4.81616 57.8208 5.06025 57.9364 5.36129C57.9776 5.48333 57.9694 5.51588 57.8538 5.55656C57.6639 5.62979 57.4658 5.69488 57.2759 5.75997C57.1933 5.79251 57.1355 5.77624 57.0777 5.69488C56.8878 5.3857 56.6236 5.28806 56.2686 5.37756C56.1778 5.40197 56.0952 5.44265 56.0374 5.51588C55.9301 5.64606 55.9383 5.82506 56.0704 5.93083C56.1447 5.99592 56.2356 6.0366 56.3264 6.07728C56.5328 6.15865 56.7475 6.23187 56.9539 6.3051C57.1107 6.36205 57.2593 6.42714 57.3997 6.50851C58.1675 6.93159 58.118 7.90795 57.6556 8.37171C57.3502 8.67276 56.9786 8.80294 56.5576 8.84362C56.5163 8.85989 56.4585 8.85175 56.3924 8.85175Z" fill="#818A95"/>
<path d="M52.9004 25.3283C52.9004 24.7018 52.9004 24.0672 52.9004 23.4407C52.9004 23.3919 52.9004 23.3512 52.9004 23.3024C52.9004 23.2454 52.9334 23.221 52.983 23.2129C53.0242 23.2129 53.0655 23.2129 53.0985 23.2129C53.8581 23.2129 54.6177 23.2129 55.3773 23.2129C55.4103 23.2129 55.4433 23.2129 55.4763 23.2129C55.5424 23.2129 55.5754 23.2536 55.5754 23.3105C55.5754 23.5302 55.5754 23.7499 55.5754 23.9696C55.5754 24.0509 55.5259 24.0753 55.4433 24.0753C55.2369 24.0753 55.0305 24.0753 54.8324 24.0753C54.5599 24.0753 54.2874 24.0753 54.0232 24.0753C53.8911 24.0753 53.8911 24.0753 53.8829 24.2137C53.8829 24.3845 53.8911 24.5554 53.8829 24.7181C53.8829 24.8157 53.9077 24.8564 54.015 24.8483C54.3948 24.8401 54.7828 24.8483 55.1626 24.8483C55.402 24.8483 55.402 24.8483 55.4103 25.0761C55.4103 25.2226 55.4103 25.3771 55.4103 25.5236C55.4103 25.67 55.402 25.6782 55.2534 25.6782C54.8736 25.6782 54.5021 25.6782 54.1223 25.6782C53.8581 25.6782 53.8911 25.6456 53.8911 25.906C53.8911 26.0687 53.8911 26.2315 53.8911 26.3942C53.8911 26.5325 53.8911 26.5325 54.0315 26.5325C54.4691 26.5325 54.8984 26.5325 55.336 26.5325C55.3855 26.5325 55.4268 26.5325 55.4763 26.5325C55.5589 26.5325 55.6002 26.5732 55.6002 26.6545C55.6002 26.8661 55.6002 27.0858 55.6002 27.2973C55.6002 27.3705 55.5589 27.4031 55.4929 27.4112C55.4516 27.4112 55.4103 27.4112 55.3773 27.4112C54.6342 27.4112 53.8829 27.4112 53.1398 27.4112C53.1233 27.4112 53.1151 27.4112 53.0985 27.4112C52.9169 27.4112 52.9086 27.4031 52.9086 27.2241C52.9004 26.6057 52.9004 25.9711 52.9004 25.3283Z" fill="#818A95"/>
<path d="M39.2274 8.8602C38.9219 8.8602 38.666 8.81952 38.4183 8.72189C38.0302 8.5673 37.7908 8.28253 37.667 7.89199C37.6174 7.74553 37.6422 7.70485 37.7826 7.65603C37.9725 7.59094 38.1706 7.53399 38.3688 7.4689C38.4596 7.43636 38.5091 7.46076 38.5339 7.55026C38.5834 7.74553 38.699 7.89199 38.8972 7.94894C39.1448 8.01403 39.3925 8.02217 39.6237 7.88385C39.8549 7.74553 39.8549 7.48517 39.632 7.34686C39.4751 7.24922 39.3017 7.19227 39.1283 7.13531C38.8394 7.03768 38.5421 6.92377 38.2862 6.75291C37.9807 6.5495 37.7991 6.26473 37.7743 5.89046C37.7413 5.33719 37.989 4.89783 38.5091 4.67002C39.0375 4.43407 39.5742 4.4422 40.0943 4.67816C40.3998 4.80834 40.5979 5.04429 40.7218 5.34533C40.7878 5.49992 40.7713 5.52433 40.6062 5.58942C40.4411 5.64637 40.276 5.71146 40.1026 5.76842C39.954 5.81723 39.9457 5.81723 39.8631 5.68705C39.6815 5.39415 39.2852 5.28024 38.9632 5.43483C38.8476 5.49178 38.7651 5.58128 38.7485 5.7196C38.7403 5.85792 38.8146 5.93928 38.9219 6.00437C39.0788 6.102 39.2522 6.15896 39.4256 6.22405C39.7063 6.32168 39.987 6.40305 40.2429 6.56577C40.5649 6.77732 40.7466 7.06209 40.7713 7.45263C40.8126 8.10353 40.4163 8.59171 39.7806 8.78698C39.5989 8.8358 39.3925 8.86834 39.2274 8.8602Z" fill="#818A95"/>
<path d="M46.9471 8.86003C46.6747 8.86003 46.4105 8.81935 46.1545 8.71357C45.7747 8.55085 45.5518 8.26608 45.428 7.88367C45.3867 7.75349 45.4032 7.71281 45.5436 7.66399C45.7335 7.5989 45.9316 7.54195 46.1298 7.47686C46.2123 7.45245 46.2619 7.46059 46.2949 7.55008C46.4435 7.92435 46.7077 8.05453 47.1288 7.98131C47.2278 7.96504 47.3187 7.94063 47.4012 7.88367C47.6076 7.73722 47.6076 7.49313 47.4012 7.35481C47.2856 7.28159 47.1535 7.23277 47.0214 7.18395C46.848 7.11886 46.6747 7.06191 46.5013 6.99682C46.3527 6.93986 46.2123 6.86664 46.0802 6.78527C45.3537 6.35405 45.3454 5.30447 46.0224 4.81629C46.2453 4.65357 46.493 4.56407 46.7655 4.53152C47.0792 4.49084 47.3847 4.51525 47.6819 4.61289C48.0617 4.74307 48.3259 4.98716 48.4745 5.34515C48.5406 5.49974 48.5241 5.53229 48.3672 5.58924C48.1856 5.65433 48.0039 5.71128 47.8305 5.78451C47.7397 5.81706 47.6902 5.79265 47.6324 5.71128C47.4425 5.40211 47.1783 5.30447 46.8233 5.39397C46.7572 5.41024 46.6994 5.43465 46.6499 5.47533C46.4765 5.60551 46.4765 5.82519 46.6416 5.95537C46.7159 6.01233 46.7985 6.05301 46.8811 6.08555C47.0875 6.16692 47.3021 6.24014 47.5085 6.31337C47.6654 6.37032 47.814 6.43541 47.9544 6.51678C48.7222 6.93173 48.6644 7.90808 48.2186 8.36371C47.9049 8.68103 47.5168 8.81934 47.0875 8.84375C47.0462 8.86003 46.9967 8.86003 46.9471 8.86003Z" fill="#818A95"/>
<path d="M57.679 27.4922C57.4231 27.4922 57.1671 27.4597 56.9277 27.362C56.5314 27.2074 56.2837 26.9227 56.1599 26.524C56.1103 26.3775 56.1268 26.345 56.2755 26.2962C56.4571 26.2311 56.6387 26.1741 56.8204 26.1172C56.9607 26.0765 56.9772 26.0846 57.0268 26.2311C57.1093 26.467 57.2745 26.5891 57.5222 26.6135C57.6295 26.6216 57.7368 26.6216 57.8359 26.6135C57.9432 26.6053 58.0423 26.5728 58.1331 26.5077C58.3313 26.3613 58.3313 26.1253 58.1249 25.987C58.0258 25.9219 57.9185 25.8731 57.8029 25.8324C57.6542 25.7754 57.5056 25.7266 57.357 25.6697C57.1919 25.6046 57.0268 25.5314 56.8782 25.45C56.4406 25.2059 56.2342 24.8398 56.2507 24.3435C56.2755 23.8634 56.5231 23.5298 56.936 23.3264C57.4891 23.0498 58.0588 23.0661 58.612 23.3264C58.9009 23.4647 59.0991 23.7007 59.2147 24.0017C59.2642 24.1319 59.256 24.1563 59.1239 24.2051C58.9422 24.2784 58.7523 24.3353 58.5707 24.4085C58.4716 24.4492 58.4138 24.4248 58.3643 24.3353C58.1826 24.0261 57.8359 23.9122 57.4974 24.0505C57.3653 24.0994 57.2745 24.1807 57.258 24.3353C57.2414 24.4899 57.324 24.5794 57.4478 24.6445C57.646 24.7584 57.8689 24.8316 58.0836 24.9049C58.2735 24.9699 58.4551 25.0432 58.6285 25.1245C59.5037 25.5558 59.4541 26.6948 58.7606 27.183C58.4386 27.4108 58.0753 27.4922 57.679 27.4922Z" fill="#818A95"/>
<path d="M39.1859 21.2844C38.8969 21.2844 38.6245 21.2437 38.3603 21.1216C38.0052 20.9589 37.7823 20.6823 37.6667 20.3161C37.6172 20.1697 37.642 20.1371 37.7906 20.0883C37.9722 20.0314 38.1539 19.9663 38.3355 19.9093C38.4759 19.8686 38.4924 19.8768 38.5336 20.007C38.6162 20.2836 38.8226 20.3975 39.0951 20.4138C39.2272 20.4219 39.3593 20.4219 39.4831 20.3812C39.5492 20.3568 39.6152 20.3243 39.673 20.2755C39.8381 20.129 39.8216 19.9175 39.6482 19.7873C39.5492 19.7141 39.4418 19.6734 39.3345 19.6327C39.1529 19.5676 38.9795 19.5025 38.7978 19.4374C38.6657 19.3886 38.5336 19.3235 38.4098 19.2503C37.964 19.0062 37.741 18.6319 37.7741 18.1275C37.7988 17.6474 38.0548 17.3057 38.4841 17.1023C39.0208 16.8419 39.5657 16.8582 40.1106 17.0942C40.4078 17.2244 40.6142 17.4603 40.7381 17.7695C40.7959 17.9159 40.7793 17.9403 40.6307 17.9973C40.4491 18.0624 40.2675 18.1193 40.0941 18.1926C39.9867 18.2333 39.9372 18.2007 39.8877 18.1112C39.6978 17.7939 39.3345 17.6881 39.0043 17.8346C38.9465 17.859 38.8969 17.8915 38.8639 17.9322C38.7401 18.0705 38.7566 18.2495 38.8969 18.3634C38.9795 18.4285 39.0786 18.4773 39.1694 18.5099C39.3593 18.5831 39.5492 18.6482 39.7473 18.7214C39.9124 18.7784 40.0776 18.8516 40.2344 18.9411C40.994 19.3561 40.9445 20.3487 40.4739 20.8043C40.1932 21.0809 39.8546 21.2111 39.4666 21.2599C39.3593 21.2762 39.2685 21.2762 39.1859 21.2844Z" fill="#818A95"/>
<path d="M37.667 12.8964C37.667 12.2699 37.667 11.6352 37.667 11.0087C37.667 10.7972 37.6752 10.7891 37.8899 10.7891C38.633 10.7891 39.3843 10.7891 40.1274 10.7891C40.1604 10.7891 40.1934 10.7891 40.2264 10.7891C40.3007 10.7891 40.3503 10.8216 40.3503 10.903C40.3503 11.1145 40.3503 11.3342 40.3503 11.5457C40.3503 11.6596 40.276 11.6596 40.1852 11.6596C39.8136 11.6596 39.4503 11.6596 39.0788 11.6596C38.9715 11.6596 38.8641 11.6596 38.7651 11.6596C38.6825 11.6596 38.666 11.6922 38.666 11.7654C38.666 11.9526 38.6743 12.1397 38.666 12.3268C38.666 12.4245 38.7073 12.4407 38.7981 12.4407C39.1944 12.4407 39.5907 12.4407 39.987 12.4407C40.1852 12.4407 40.1852 12.4407 40.1852 12.636C40.1852 12.7987 40.1852 12.9614 40.1852 13.1242C40.1852 13.2706 40.1769 13.2788 40.0283 13.2788C39.632 13.2788 39.2357 13.2788 38.8394 13.2788C38.6743 13.2788 38.6743 13.2788 38.6743 13.4496C38.6743 13.6368 38.6825 13.8239 38.6743 14.011C38.6743 14.1087 38.7073 14.1331 38.7981 14.1249C39.2274 14.1249 39.6568 14.1249 40.0861 14.1249C40.1356 14.1249 40.1769 14.1249 40.2264 14.1249C40.3585 14.1331 40.375 14.1412 40.3833 14.2714C40.3916 14.4504 40.3833 14.6375 40.3833 14.8165C40.3833 14.9874 40.375 14.9955 40.2017 14.9955C39.6072 14.9955 39.0128 14.9955 38.4183 14.9955C38.2367 14.9955 38.0633 14.9955 37.8817 14.9955C37.6835 14.9955 37.6752 14.9955 37.6752 14.8003C37.6752 14.5562 37.6752 14.3039 37.6752 14.0598C37.667 13.6774 37.667 13.2869 37.667 12.8964Z" fill="#818A95"/>
<path d="M45.8409 19.5427C45.8409 19.0383 45.8409 18.542 45.8409 18.0375C45.8409 17.8992 45.8409 17.8992 45.7005 17.8992C45.4198 17.8992 45.1474 17.8992 44.8667 17.8992C44.7015 17.8992 44.685 17.8829 44.6768 17.7202C44.6768 17.5412 44.6768 17.3541 44.6768 17.1751C44.6768 17.0042 44.685 16.9961 44.8584 16.9961C45.0896 16.9961 45.3207 16.9961 45.5519 16.9961C46.2785 16.9961 47.005 16.9961 47.7316 16.9961C47.7811 16.9961 47.8224 16.9961 47.8719 16.9961C47.9462 16.9961 47.9875 17.0286 47.9875 17.1019C47.9875 17.3297 47.9875 17.5575 47.9875 17.7853C47.9875 17.8829 47.9132 17.8992 47.8389 17.8992C47.6573 17.8992 47.4674 17.8911 47.2857 17.8992C47.1454 17.9074 46.9637 17.8341 46.8729 17.9318C46.7904 18.0131 46.8482 18.1921 46.8482 18.3223C46.8482 19.1929 46.8482 20.0635 46.8482 20.9341C46.8482 20.9829 46.8482 21.0398 46.8482 21.0886C46.8482 21.1619 46.8069 21.2026 46.7408 21.2026C46.4849 21.2026 46.2289 21.2026 45.973 21.2026C45.8904 21.2026 45.8657 21.1456 45.8657 21.0724C45.8657 20.8771 45.8657 20.6818 45.8657 20.4866C45.8409 20.1855 45.8409 19.8601 45.8409 19.5427Z" fill="#818A95"/>
<path d="M64.2028 19.519C64.2028 19.0308 64.2028 18.5426 64.2028 18.0545C64.2028 17.908 64.2028 17.8999 64.0541 17.8999C63.7817 17.8999 63.5092 17.8999 63.245 17.8999C63.0716 17.8999 63.0551 17.8836 63.0469 17.7127C63.0469 17.5337 63.0469 17.3466 63.0469 17.1676C63.0469 17.013 63.0551 17.0049 63.2203 17.0049C63.7734 17.0049 64.3266 17.0049 64.888 17.0049C65.3091 17.0049 65.7302 17.0049 66.1595 17.0049C66.3494 17.0049 66.3576 17.013 66.3576 17.2002C66.3576 17.3629 66.3576 17.5256 66.3576 17.6883C66.3576 17.8917 66.3494 17.8999 66.1265 17.8999C65.8788 17.8999 65.6393 17.8999 65.3917 17.8999C65.1852 17.8999 65.2018 17.8836 65.2018 18.0951C65.2018 19.0471 65.2018 19.9909 65.2018 20.9428C65.2018 21.2113 65.2018 21.2113 64.9293 21.2113C64.7559 21.2113 64.5825 21.2113 64.4174 21.2113C64.2193 21.2113 64.211 21.2032 64.211 20.9998C64.2028 20.5116 64.2028 20.0153 64.2028 19.519Z" fill="#818A95"/>
<path d="M59.7193 6.69583C59.7193 7.32233 59.7193 7.95696 59.7193 8.58345C59.7193 8.78686 59.7193 8.78686 59.5046 8.78686C59.2982 8.78686 59.0918 8.78686 58.8936 8.78686C58.7368 8.78686 58.7285 8.77872 58.7285 8.616C58.7285 8.36377 58.7285 8.11155 58.7285 7.85932C58.7285 6.85042 58.7285 5.84153 58.7285 4.84076C58.7285 4.79194 58.7285 4.75126 58.7285 4.70245C58.7285 4.62108 58.7615 4.5804 58.8441 4.57227C59.1 4.57227 59.356 4.57227 59.6119 4.57227C59.6862 4.57227 59.7193 4.61295 59.7193 4.68617C59.7193 4.73499 59.7193 4.77567 59.7193 4.82449C59.7193 5.44285 59.7193 6.06934 59.7193 6.69583Z" fill="#818A95"/>
<path d="M60.9907 25.328C60.9907 25.9382 60.9907 26.5484 60.9907 27.1587C60.9907 27.2075 60.9907 27.2482 60.9907 27.297C60.9989 27.3865 60.9576 27.4353 60.8668 27.4353C60.6191 27.4353 60.3797 27.4353 60.132 27.4353C60.0412 27.4353 59.9917 27.3946 59.9999 27.3051C59.9999 27.2563 59.9999 27.2156 59.9999 27.1668C59.9999 25.9301 59.9999 24.7015 59.9999 23.4648C59.9999 23.4322 59.9999 23.3997 59.9999 23.3672C60.0082 23.237 60.0164 23.2207 60.1485 23.2207C60.3632 23.2207 60.5861 23.2207 60.8008 23.2207C60.9907 23.2207 60.9907 23.2207 60.9907 23.3997C60.9907 23.717 60.9907 24.0343 60.9907 24.3516C60.9907 24.6771 60.9907 25.0025 60.9907 25.328Z" fill="#818A95"/>
<path d="M33.9682 25.3117C33.9682 24.6934 33.9682 24.075 33.9682 23.4648C33.9682 23.416 33.9682 23.3753 33.9682 23.3265C33.9682 23.2532 34.0095 23.2207 34.0838 23.2207C34.3397 23.2207 34.5957 23.2207 34.8516 23.2207C34.9259 23.2207 34.959 23.2614 34.959 23.3265C34.959 23.3753 34.959 23.416 34.959 23.4648C34.959 24.7015 34.959 25.9464 34.959 27.1831C34.959 27.2075 34.959 27.2319 34.959 27.2644C34.9507 27.419 34.9425 27.4353 34.7856 27.4353C34.5709 27.4353 34.3645 27.4353 34.1499 27.4353C33.9765 27.4353 33.96 27.419 33.96 27.2482C33.9682 26.5973 33.9682 25.9545 33.9682 25.3117Z" fill="#818A95"/>
<path d="M50.2661 6.69616C50.2661 7.31452 50.2661 7.93288 50.2661 8.55124C50.2661 8.60006 50.2661 8.64074 50.2661 8.68955C50.2661 8.76278 50.2249 8.79533 50.1506 8.79533C49.9029 8.79533 49.6469 8.79533 49.3992 8.79533C49.3167 8.79533 49.2754 8.75464 49.2754 8.68142C49.2754 8.64074 49.2754 8.60005 49.2754 8.56751C49.2754 7.32266 49.2754 6.06967 49.2754 4.82482C49.2754 4.776 49.2754 4.73532 49.2754 4.6865C49.2836 4.62955 49.3167 4.58887 49.3745 4.58887C49.6304 4.58887 49.8864 4.58887 50.1506 4.58887C50.2249 4.58887 50.2579 4.62955 50.2579 4.70278C50.2579 4.75159 50.2579 4.79227 50.2579 4.84109C50.2661 5.44318 50.2661 6.06967 50.2661 6.69616Z" fill="#818A95"/>
<path d="M57.7539 19.0878C57.7539 18.4775 57.7539 17.8673 57.7539 17.2571C57.7539 17.2083 57.7539 17.1676 57.7539 17.1188C57.7539 17.0456 57.7869 17.0049 57.8612 17.0049C58.1172 17.0049 58.3731 17.0049 58.6373 17.0049C58.7116 17.0049 58.7447 17.0374 58.7447 17.1107C58.7447 17.1513 58.7447 17.192 58.7447 17.2246C58.7447 18.4694 58.7447 19.7224 58.7447 20.9673C58.7447 20.9998 58.7447 21.0323 58.7447 21.0649C58.7529 21.1625 58.7116 21.2113 58.6043 21.2113C58.3649 21.2113 58.1254 21.2113 57.8943 21.2113C57.7704 21.2113 57.7539 21.1869 57.7539 21.0323C57.7539 20.5523 57.7539 20.0723 57.7539 19.5922C57.7539 19.4214 57.7539 19.2505 57.7539 19.0878Z" fill="#818A95"/>
<path d="M28.6673 15.4674C28.4031 14.5887 27.8087 14.0598 26.9088 13.8645C26.2978 13.7344 25.7199 13.5309 25.1749 13.2299C23.5567 12.3268 22.6816 10.9599 22.5495 9.13736C22.5082 8.52713 22.5742 7.93319 22.6898 7.3311C22.7476 7.03819 22.7393 6.74529 22.6568 6.46052C22.4421 5.66316 21.9302 5.11803 21.1294 4.89022C20.3203 4.6624 19.5855 4.84953 18.9745 5.42721C18.5617 5.81775 18.1324 6.17575 17.637 6.46052C16.1674 7.30669 14.6482 7.43687 13.0713 6.78597C12.3117 6.46865 11.676 5.98048 11.0815 5.42721C10.4623 4.8414 9.72748 4.67054 8.91011 4.90649C7.80377 5.2238 7.1763 6.31407 7.40747 7.44501C7.55608 8.161 7.58911 8.87699 7.48178 9.59299C7.24235 11.1552 6.41672 12.3349 5.04618 13.1485C4.42696 13.5147 3.74169 13.7344 3.03991 13.8889C2.09044 14.1005 1.38866 14.9304 1.33912 15.8742C1.28133 16.9401 2.01613 17.8839 3.07294 18.1035C3.56831 18.2093 4.05543 18.3558 4.51778 18.5673C5.83053 19.1613 6.78 20.0969 7.25886 21.4557C7.61388 22.4646 7.62213 23.4979 7.41573 24.5312C7.36619 24.7916 7.34968 25.0438 7.3827 25.3041C7.52306 26.3456 8.43125 27.1511 9.48805 27.1755C10.132 27.1918 10.6852 26.9639 11.1393 26.5083C11.5604 26.0934 12.031 25.7354 12.5511 25.4506C14.1116 24.6044 15.6968 24.5556 17.3067 25.3367C17.9425 25.6459 18.4874 26.0771 18.991 26.5571C19.6928 27.2324 20.7413 27.3708 21.5835 26.907C22.4339 26.4432 22.8714 25.4994 22.665 24.5149C22.5164 23.8233 22.4834 23.1236 22.5907 22.4239C22.8054 20.9919 23.5072 19.8528 24.7208 19.0311C25.4226 18.5592 26.1987 18.2744 27.0243 18.0954C28.0316 17.8839 28.7416 17.0051 28.7416 15.9637C28.7416 15.8172 28.7251 15.6382 28.6673 15.4674ZM22.5577 12.0095C23.1604 12.9533 24.0026 13.6367 25.0428 14.1412C24.919 14.1819 24.8364 14.2144 24.7456 14.2388C23.9117 14.5154 23.1191 14.8816 22.3843 15.3535C22.2275 15.4511 22.2275 15.4511 22.0871 15.3372C20.6505 14.1656 19.7093 12.6766 19.2635 10.8948C19.247 10.8216 19.2387 10.7402 19.2139 10.667C19.1809 10.5856 19.2057 10.5368 19.2882 10.4961C20.1304 10.073 20.8982 9.53603 21.6082 8.91768C21.6082 8.91768 21.6165 8.91768 21.6578 8.90954C21.6825 10.0323 21.9467 11.0738 22.5577 12.0095ZM19.2222 6.72902C19.346 6.1432 19.8662 5.63875 20.5927 5.6713C21.2615 5.70384 21.7899 6.2327 21.8312 6.89174C21.8559 7.25787 21.7403 7.59146 21.4761 7.85182C20.7826 8.55154 19.9983 9.14549 19.1231 9.6174C19.1066 9.62553 19.0901 9.62553 19.0736 9.63367C19.0323 9.56858 19.0405 9.50349 19.0323 9.4384C18.9828 8.52713 19.0405 7.62401 19.2222 6.72902ZM18.2645 7.10328C18.1489 7.8925 18.1076 8.65731 18.1571 9.42213C18.1654 9.58485 18.1736 9.74758 18.1984 9.9103C18.2149 10.0161 18.1901 10.073 18.0746 10.1137C17.4058 10.3659 16.7205 10.5368 16.0105 10.6263C14.64 10.789 13.319 10.6182 12.031 10.13C11.8328 10.0568 11.8411 10.1056 11.8741 9.86962C11.9567 9.15363 11.9484 8.44577 11.8741 7.72978C11.8576 7.53451 11.8328 7.34737 11.8081 7.11956C13.9712 8.41323 16.1096 8.40509 18.2645 7.10328ZM8.3074 6.51747C8.50556 5.99675 8.91837 5.70384 9.47979 5.6713C10.1073 5.63875 10.6852 6.0537 10.8173 6.66393C10.9989 7.46128 11.065 8.26677 11.0402 9.0804C11.032 9.2594 11.0155 9.44653 11.0072 9.63367C10.9246 9.64994 10.8916 9.60926 10.8421 9.58485C10.0165 9.12922 9.26513 8.55968 8.60463 7.90064C8.22484 7.50196 8.10925 7.03006 8.3074 6.51747ZM8.42299 8.95022C8.48904 8.93395 8.50556 8.98277 8.53858 9.00717C9.21559 9.58485 9.94214 10.0893 10.7347 10.488C10.8751 10.5612 10.8751 10.5612 10.8421 10.7239C10.421 12.5871 9.47154 14.1249 7.98541 15.3453C7.84505 15.4592 7.84505 15.4592 7.68819 15.3616C6.87082 14.8409 5.99565 14.4422 5.02967 14.1493C7.20932 13.0509 8.32392 11.3179 8.42299 8.95022ZM3.80774 17.2736C3.03165 17.4364 2.28859 16.8994 2.21428 16.0939C2.14823 15.443 2.64361 14.727 3.51052 14.6863C3.71692 14.6782 3.91507 14.7351 4.11322 14.7839C5.11223 15.0199 6.05345 15.386 6.93687 15.9149C6.96989 15.9312 7.00292 15.9556 7.05245 15.98C6.99466 16.0532 6.92035 16.0776 6.86256 16.1183C5.90483 16.6797 4.88106 17.054 3.80774 17.2736ZM7.50655 19.9749C6.90384 19.0392 6.0617 18.3639 5.06269 17.8757C5.05444 17.8269 5.09572 17.8432 5.11223 17.8269C5.137 17.8106 5.16177 17.8106 5.18654 17.8025C6.08647 17.5177 6.93687 17.1272 7.72947 16.6065C7.8368 16.5332 7.88634 16.5739 7.96064 16.6309C9.34769 17.7537 10.2724 19.1694 10.743 20.878C10.7843 21.0163 10.8091 21.1546 10.8503 21.293C10.8751 21.3906 10.8503 21.4475 10.7595 21.4882C10.454 21.6347 10.1651 21.8055 9.88435 21.9845C9.41374 22.2856 8.96791 22.6192 8.54684 22.9853C8.51381 23.0097 8.48904 23.0585 8.41474 23.0585C8.38997 21.9439 8.11751 20.9106 7.50655 19.9749ZM11.0567 23.5711C11.032 24.1163 10.9742 24.6614 10.8668 25.1984C10.7513 25.8086 10.3219 26.2317 9.71097 26.3212C9.04221 26.4188 8.37345 25.9469 8.25787 25.2879C8.1753 24.8322 8.29089 24.4417 8.62114 24.1081C9.28164 23.4572 10.0165 22.8958 10.8256 22.4483C10.8834 22.4158 10.9329 22.367 11.0155 22.3751C11.0567 22.7738 11.0733 23.1724 11.0567 23.5711ZM11.8163 24.8811C11.8411 24.6858 11.8576 24.5149 11.8741 24.3441C11.9567 23.5955 11.9649 22.8389 11.8741 22.0903C11.8576 21.9764 11.8989 21.9357 11.998 21.895C13.1125 21.472 14.2684 21.2767 15.4656 21.3336C16.3573 21.3825 17.2159 21.5696 18.0415 21.8788C18.2067 21.9439 18.2149 21.9439 18.1984 22.1066C18.1076 22.8795 18.1241 23.6525 18.2067 24.4173C18.2232 24.5556 18.2562 24.7021 18.2479 24.8648C16.0931 23.6037 13.9712 23.6037 11.8163 24.8811ZM18.3553 21.0733C16.1343 20.2515 13.9299 20.2515 11.709 21.0733C11.2466 19.0392 10.2063 17.3469 8.57986 16.0044C9.38898 15.3372 10.0577 14.5887 10.5861 13.7181C11.1145 12.8556 11.4778 11.9281 11.709 10.9355C13.9299 11.7654 16.1426 11.7654 18.3635 10.9273C18.8259 12.9614 19.8579 14.6538 21.4927 16.0044C19.8662 17.3387 18.8259 19.0311 18.3553 21.0733ZM21.7899 25.3936C21.6495 25.8737 21.311 26.191 20.8156 26.2886C19.9735 26.4595 19.3708 25.9306 19.2387 25.3286C19.024 24.3847 18.9745 23.4247 19.0488 22.4565C19.0488 22.4239 19.0488 22.3914 19.0818 22.367C19.1314 22.3588 19.1644 22.3914 19.2057 22.4158C20.0313 22.8714 20.7826 23.4328 21.4514 24.1C21.8064 24.4661 21.9302 24.9055 21.7899 25.3936ZM21.6413 23.0992C21.567 23.0423 21.5257 23.0016 21.4844 22.969C20.8239 22.3995 20.1139 21.9113 19.3378 21.5126C19.1809 21.4313 19.1809 21.4638 19.2222 21.2848C19.6433 19.4135 20.6092 17.8594 22.1119 16.639C22.1944 16.5658 22.2522 16.5658 22.3513 16.6227C23.1522 17.1435 24.0026 17.534 24.919 17.8188C24.952 17.8269 24.9768 17.8432 25.0346 17.8594C22.8549 18.9416 21.7403 20.6827 21.6413 23.0992ZM27.7014 16.6227C27.4372 17.1109 26.8427 17.3957 26.2978 17.2818C25.1584 17.054 24.0851 16.6471 23.0944 16.0451C23.0779 16.0369 23.0613 16.0207 23.0283 15.9962C23.631 15.622 24.242 15.3372 24.8942 15.1094C25.3318 14.9548 25.7859 14.8246 26.24 14.7351C26.8014 14.6212 27.2803 14.7921 27.6188 15.2477C27.9325 15.6789 27.9573 16.1508 27.7014 16.6227Z" fill="#818A95"/>
<path d="M15.0443 26.6055C13.5334 26.5974 12.3032 27.8015 12.295 29.2823C12.2867 30.7794 13.5086 31.9999 15.0278 31.9999C16.5387 31.9999 17.7524 30.8038 17.7771 29.323C17.7854 27.8748 16.58 26.5974 15.0443 26.6055ZM15.0278 31.1374C14.004 31.1374 13.1701 30.3075 13.1619 29.2986C13.1619 28.2897 13.9958 27.4598 15.0195 27.4598C16.0516 27.4517 16.8854 28.2734 16.8937 29.2823C16.902 30.3075 16.0598 31.1456 15.0278 31.1374Z" fill="#818A95"/>
<path d="M15.0278 0C13.5086 0 12.2867 1.21231 12.295 2.70938C12.295 4.19832 13.5169 5.39436 15.0278 5.39436C16.5387 5.39436 17.7606 4.19832 17.7606 2.70938C17.7606 1.21231 16.5387 0 15.0278 0ZM15.0195 4.54005C13.9875 4.54005 13.1536 3.71015 13.1619 2.68497C13.1701 1.67607 14.0123 0.85431 15.036 0.862446C16.0598 0.870582 16.8854 1.70048 16.8854 2.70938C16.8854 3.71828 16.0516 4.54005 15.0195 4.54005Z" fill="#818A95"/>
<path d="M27.1153 6.46782C25.72 6.45968 24.399 7.57435 24.4073 9.14466C24.4073 10.6417 25.6292 11.854 27.1401 11.854C28.6345 11.8622 29.8316 10.6661 29.8564 9.19347C29.8729 7.76962 28.6923 6.47595 27.1153 6.46782ZM27.1566 10.9916C25.976 10.9835 25.2742 10.0315 25.2742 9.14466C25.2824 8.12762 26.0998 7.31399 27.1236 7.32213C28.1556 7.33026 28.9812 8.14389 28.9812 9.16093C28.9812 10.178 28.1721 10.9997 27.1566 10.9916Z" fill="#818A95"/>
<path d="M27.2065 20.1452C25.6791 20.1126 24.4324 21.3087 24.3994 22.8302C24.3994 24.4574 25.7204 25.5151 27.0497 25.5314C28.5606 25.5477 29.8155 24.3842 29.8568 22.9115C29.8816 21.4063 28.7092 20.1777 27.2065 20.1452ZM27.0992 24.669C26.0837 24.669 25.2746 23.8553 25.2746 22.8464C25.2746 21.8863 26.0424 21.0076 27.157 20.9995C28.1725 20.9914 28.9816 21.8294 28.9816 22.8464C28.9734 23.8635 28.1312 24.6771 27.0992 24.669Z" fill="#818A95"/>
<path d="M2.9656 6.46793C1.42993 6.45166 0.216264 7.70465 0.208008 9.16104C0.208008 10.65 1.41342 11.8542 2.90781 11.8542C4.4187 11.8542 5.65714 10.65 5.6654 9.16104C5.67365 7.6721 4.46824 6.47607 2.9656 6.46793ZM2.93257 10.9998C1.92531 11.008 1.09143 10.1862 1.08317 9.19359C1.07492 8.17655 1.91705 7.33851 2.94909 7.33851C3.97286 7.33038 4.79849 8.15214 4.79849 9.16104C4.79023 10.1537 3.94809 10.9917 2.93257 10.9998Z" fill="#818A95"/>
<path d="M2.94136 20.1455C1.44698 20.1374 0.225053 21.3416 0.216797 22.8224C0.216797 24.3195 1.43872 25.5318 2.94962 25.5318C4.46052 25.5318 5.66593 24.3439 5.67419 22.8631C5.67419 21.3741 4.444 20.1537 2.94136 20.1455ZM2.96613 24.6693C1.9341 24.6693 1.0837 23.8394 1.09196 22.8224C1.09196 21.8216 1.91759 20.9999 2.92485 20.9999C3.94863 20.9999 4.80728 21.846 4.80728 22.8549C4.79902 23.8557 3.9734 24.6693 2.96613 24.6693Z" fill="#818A95"/>
<path d="M43.5448 24.6123C43.4952 23.9858 43.0907 23.4977 42.488 23.3105C42.2816 23.2454 42.0669 23.2129 41.844 23.2129C41.3816 23.2129 40.9193 23.2129 40.4569 23.2129C40.267 23.2129 40.2588 23.2129 40.2588 23.4163C40.2588 24.0509 40.2588 24.6937 40.2588 25.3283C40.2588 25.9548 40.2588 26.5894 40.2588 27.2159C40.2588 27.2241 40.2588 27.2322 40.2588 27.2322C40.2588 27.4112 40.267 27.4193 40.4487 27.4193C40.7624 27.4193 41.0844 27.4193 41.3982 27.4193C41.6541 27.4193 41.91 27.4193 42.166 27.3868C42.9338 27.2892 43.4787 26.744 43.5365 25.9955C43.5861 25.548 43.5778 25.0761 43.5448 24.6123ZM42.5623 25.8816C42.5375 26.2477 42.3394 26.4511 41.9761 26.5081C41.7697 26.5406 41.5715 26.5162 41.3651 26.5244C41.2743 26.5244 41.2495 26.4837 41.2578 26.4104C41.2578 26.3942 41.2578 26.386 41.2578 26.3698C41.2578 25.67 41.2578 24.9622 41.2578 24.2625C41.2578 24.116 41.2578 24.116 41.4064 24.116C41.5715 24.116 41.7367 24.1079 41.9018 24.116C42.3146 24.1404 42.5458 24.3682 42.5623 24.7669C42.5705 24.9459 42.5623 25.1331 42.5623 25.3121C42.5623 25.5073 42.5705 25.6945 42.5623 25.8816Z" fill="#818A95"/>
<path d="M44.5448 12.318C44.5118 11.4637 43.9586 10.8941 43.0834 10.8128C42.5468 10.7639 42.0019 10.7965 41.4652 10.7883C41.267 10.7883 41.2588 10.7965 41.2588 10.9999C41.2588 11.6264 41.2588 12.261 41.2588 12.8875C41.2588 13.5303 41.2588 14.173 41.2588 14.8158C41.2588 14.9785 41.267 14.9948 41.3909 14.9948C41.9523 14.9948 42.5137 15.0111 43.0752 14.9785C43.9338 14.9297 44.5118 14.3276 44.5448 13.4815C44.5613 13.0991 44.5613 12.7085 44.5448 12.318ZM43.554 13.4896C43.5293 13.8232 43.3311 14.0266 43.0009 14.0835C42.7779 14.1161 42.555 14.0917 42.3321 14.0998C42.233 14.0998 42.2578 14.0347 42.2578 13.9778C42.2578 13.6116 42.2578 13.2536 42.2578 12.8875C42.2578 12.5376 42.2578 12.1878 42.2578 11.8379C42.2578 11.6996 42.2578 11.6996 42.3982 11.6996C42.588 11.6996 42.7779 11.6915 42.9678 11.7159C43.3229 11.7647 43.5375 11.9681 43.554 12.318C43.5788 12.7004 43.5788 13.0991 43.554 13.4896Z" fill="#818A95"/>
<path d="M57.0115 20.9585C56.7638 20.511 56.5161 20.0635 56.2684 19.616C56.3097 19.559 56.3675 19.5346 56.417 19.5021C56.6812 19.315 56.8464 19.0627 56.9042 18.7454C56.9454 18.5257 56.9454 18.3061 56.9207 18.0864C56.8464 17.5331 56.5244 17.1833 55.9712 17.0449C55.8226 17.0124 55.674 16.9961 55.5171 16.9961C55.0548 16.9961 54.5924 16.9961 54.1301 16.9961C53.8411 16.9961 53.8576 16.988 53.8576 17.2565C53.8576 18.4851 53.8576 19.7136 53.8576 20.9422C53.8576 20.9829 53.8576 21.0236 53.8576 21.0561C53.8659 21.1782 53.8824 21.2026 54.0145 21.2026C54.2374 21.2107 54.4603 21.2107 54.6915 21.2026C54.8483 21.2026 54.8566 21.1863 54.8566 21.0317C54.8566 20.6981 54.8566 20.3727 54.8566 20.0391C54.8566 19.7543 54.8566 19.7543 55.1538 19.7543C55.2777 19.7543 55.3355 19.795 55.3933 19.9089C55.5832 20.2913 55.7896 20.6737 55.9795 21.0561C56.0372 21.17 56.1116 21.2189 56.2437 21.2107C56.4583 21.2026 56.6647 21.2107 56.8794 21.2107C57.1353 21.2189 57.1436 21.1944 57.0115 20.9585ZM55.3767 18.9244C55.2612 18.9244 55.1373 18.9244 55.0217 18.9244C54.8236 18.9244 54.8483 18.9326 54.8483 18.7454C54.8483 18.6315 54.8483 18.5095 54.8483 18.3956C54.8483 18.2491 54.8483 18.1108 54.8483 17.9643C54.8483 17.8992 54.8649 17.8667 54.9392 17.8667C55.1373 17.8667 55.3355 17.8586 55.5336 17.8748C55.7565 17.8911 55.8886 18.0132 55.9299 18.2328C55.9382 18.2654 55.9382 18.2979 55.9382 18.3305C55.9629 18.7536 55.7978 18.9244 55.3767 18.9244Z" fill="#818A95"/>
<path d="M44.8502 6.03697C44.8089 5.23148 44.3301 4.70262 43.6035 4.55616C43.3311 4.49921 43.0504 4.49921 42.7779 4.53176C42.0101 4.61312 41.4982 5.10943 41.3991 5.86611C41.3496 6.26478 41.3826 6.65533 41.3743 7.054C41.3661 7.233 41.3826 7.40386 41.4074 7.58286C41.4899 8.18495 41.8945 8.63244 42.4889 8.79517C42.8357 8.88467 43.1742 8.8928 43.5292 8.83585C44.231 8.72194 44.7016 8.25817 44.8172 7.56659C44.8667 7.27368 44.8337 6.98078 44.8502 6.74482C44.8502 6.46819 44.8667 6.24851 44.8502 6.03697ZM43.8677 6.66346C43.8677 6.84246 43.8677 7.02959 43.8677 7.20859C43.8677 7.31436 43.8512 7.42014 43.8182 7.51777C43.7274 7.81881 43.4632 7.9734 43.0669 7.95713C42.7036 7.94086 42.4642 7.77 42.4064 7.46082C42.3899 7.36318 42.3733 7.25741 42.3733 7.15164C42.3651 6.84246 42.3733 6.52514 42.3733 6.21597C42.3733 6.10206 42.3899 5.99629 42.4146 5.89051C42.4724 5.67083 42.5963 5.51625 42.8274 5.45929C43.0256 5.40234 43.232 5.40234 43.4301 5.45929C43.7026 5.54065 43.8512 5.7522 43.8677 6.08579C43.8677 6.27292 43.8595 6.46819 43.8677 6.66346Z" fill="#818A95"/>
<path d="M70.205 18.8195C70.2133 18.6242 70.205 18.4289 70.172 18.2337C70.0564 17.6234 69.7179 17.2085 69.1152 17.0214C68.8097 16.9237 68.5042 16.9237 68.1905 16.9481C67.3896 17.0132 66.8777 17.4851 66.7539 18.2662C66.7044 18.551 66.7456 18.8357 66.7291 19.1287C66.7456 19.4297 66.7043 19.7389 66.7621 20.0399C66.8695 20.6095 67.1915 21.0081 67.7612 21.1953C68.0831 21.301 68.4217 21.3092 68.7602 21.2766C69.5528 21.2034 70.0812 20.6908 70.1802 19.9179C70.2298 19.5436 70.1967 19.1775 70.205 18.8195ZM69.2143 19.6087C69.206 20.2921 68.7932 20.4386 68.2648 20.3654C67.9758 20.3247 67.8107 20.1538 67.7446 19.8772C67.6868 19.6168 67.7364 19.3565 67.7199 19.1449C67.7199 18.9252 67.7199 18.7462 67.7199 18.5754C67.7199 18.4533 67.7364 18.3313 67.7859 18.2174C67.9015 17.957 68.1244 17.835 68.5042 17.8431C68.8345 17.8513 69.0491 17.9814 69.1482 18.2337C69.1977 18.3557 69.2143 18.4859 69.2143 18.6161C69.2143 18.9415 69.2225 19.2751 69.2143 19.6087Z" fill="#818A95"/>
<path d="M47.7062 25.3199C47.7062 25.084 47.7144 24.848 47.7062 24.6202C47.6649 23.9123 47.2273 23.3754 46.5255 23.2126C46.1457 23.1231 45.7659 23.1231 45.3861 23.2208C44.7422 23.3835 44.3293 23.8391 44.2633 24.4819C44.2055 25.0433 44.1972 25.6128 44.2633 26.1742C44.3376 26.8089 44.6926 27.2319 45.3283 27.4191C45.6586 27.5167 45.9971 27.5167 46.3274 27.476C47.0539 27.3865 47.5328 26.9228 47.6731 26.2149C47.7392 25.9139 47.6979 25.6128 47.7062 25.3199ZM46.7237 25.9139C46.7071 26.3451 46.4677 26.581 46.0219 26.5892C45.9476 26.5892 45.8733 26.5892 45.8072 26.581C45.51 26.5485 45.3118 26.3614 45.2623 26.0685C45.2458 25.9708 45.2375 25.8732 45.2375 25.7756C45.2375 25.4664 45.2375 25.1653 45.2375 24.8562C45.2375 24.8317 45.2375 24.8073 45.2375 24.7748C45.2623 24.1564 45.7907 23.8473 46.3604 24.1076C46.6081 24.2215 46.6989 24.4249 46.7154 24.6772C46.7319 24.8887 46.7154 25.1084 46.7154 25.3199C46.7237 25.5233 46.7237 25.7186 46.7237 25.9139Z" fill="#818A95"/>
<path d="M65.3332 27.3219C65.3167 27.2731 65.3002 27.2243 65.2919 27.1755C65.0772 26.492 64.8543 25.8167 64.6397 25.1333C64.458 24.5719 64.2846 24.0023 64.103 23.4409C64.037 23.2212 64.0287 23.2212 63.7893 23.2212C63.6737 23.2212 63.5498 23.2212 63.4342 23.2212C63.3187 23.2212 63.1948 23.2212 63.0792 23.2212C62.8563 23.2212 62.8481 23.1724 62.7655 23.4409C62.6086 23.9698 62.4352 24.4986 62.2701 25.0194C62.0389 25.7598 61.8078 26.5083 61.5766 27.2568C61.5271 27.4033 61.5436 27.4277 61.7004 27.4358C61.9068 27.4358 62.1132 27.4358 62.3114 27.4358C62.4765 27.4358 62.493 27.4277 62.5426 27.2568C62.6086 27.0616 62.6664 26.8582 62.7242 26.6629C62.749 26.5571 62.8068 26.5327 62.9058 26.5327C63.2526 26.5408 63.6076 26.5408 63.9544 26.5327C64.0535 26.5327 64.0947 26.5571 64.1195 26.6548C64.1773 26.8663 64.2434 27.0778 64.3094 27.2894C64.3342 27.3626 64.3507 27.4358 64.4415 27.4358C64.714 27.4358 64.9864 27.4358 65.2506 27.4358C65.3167 27.4277 65.3497 27.387 65.3332 27.3219ZM63.0379 25.6377C63.1783 25.174 63.3104 24.7183 63.4177 24.2464C63.5333 24.7102 63.6572 25.174 63.7975 25.6377C63.5498 25.6377 63.3021 25.6377 63.0379 25.6377Z" fill="#818A95"/>
<path d="M37.3782 21.0893C37.37 21.0649 37.37 21.0405 37.3617 21.0161C36.9572 19.7305 36.5444 18.4531 36.1398 17.1676C36.0903 17.013 36.082 17.0049 35.9169 17.0049C35.6362 17.0049 35.3637 17.0049 35.083 17.0049C34.8848 17.0049 34.8848 17.0049 34.8271 17.192C34.5794 17.9894 34.3317 18.7786 34.084 19.5759C33.9271 20.0641 33.7785 20.5523 33.6299 21.0486C33.5886 21.1869 33.6051 21.2113 33.7537 21.2195C33.9684 21.2276 34.1748 21.2276 34.3895 21.2195C34.5381 21.2195 34.5629 21.1951 34.6041 21.0649C34.6702 20.8615 34.7362 20.6581 34.7858 20.4465C34.8105 20.3408 34.8518 20.3001 34.9757 20.3001C35.3224 20.3082 35.6609 20.3082 36.0077 20.3001C36.115 20.3001 36.1646 20.3326 36.1893 20.4303C36.2471 20.6337 36.3049 20.8289 36.3627 21.0323C36.4205 21.2113 36.4288 21.2195 36.6104 21.2195C36.7095 21.2195 36.8086 21.2195 36.9076 21.2195C37.0397 21.2195 37.1718 21.2195 37.3039 21.2195C37.37 21.2113 37.4113 21.1707 37.3782 21.0893ZM35.1078 19.4214C35.2316 18.9495 35.3802 18.4938 35.4876 18.0219C35.6031 18.4938 35.727 18.9495 35.8673 19.4214C35.6114 19.4214 35.372 19.4214 35.1078 19.4214Z" fill="#818A95"/>
<path d="M37.3779 8.64854C37.3697 8.60786 37.3532 8.57532 37.3449 8.53464C37.155 7.93255 36.9651 7.33047 36.7752 6.73652C36.5688 6.07748 36.3542 5.42658 36.1477 4.76754C36.0817 4.57227 36.0817 4.57227 35.867 4.57227C35.7432 4.57227 35.6193 4.57227 35.4872 4.57227C35.3469 4.57227 35.2065 4.57227 35.0744 4.57227C34.8845 4.57227 34.8845 4.57227 34.8267 4.75126C34.5873 5.51607 34.3479 6.27275 34.1167 7.03756C33.9516 7.56642 33.7865 8.08714 33.6213 8.616C33.5801 8.75432 33.5966 8.77872 33.7369 8.77872C33.9516 8.77872 34.158 8.77872 34.3727 8.77872C34.5378 8.77872 34.546 8.77059 34.5956 8.616C34.6616 8.41259 34.7277 8.20918 34.7772 7.99764C34.802 7.90814 34.8433 7.8756 34.9341 7.8756C35.2891 7.88373 35.6441 7.88373 35.9991 7.8756C36.0982 7.8756 36.1395 7.90814 36.1643 7.99764C36.2221 8.20918 36.2964 8.42073 36.3542 8.63227C36.3789 8.72991 36.4285 8.78686 36.544 8.77872C36.7835 8.77059 37.0147 8.77872 37.2541 8.77872C37.3944 8.78686 37.4027 8.76245 37.3779 8.64854ZM35.0992 6.99688C35.2396 6.53311 35.3634 6.06934 35.4872 5.60557C35.6028 6.06934 35.7267 6.52497 35.867 6.99688C35.6111 6.99688 35.3634 6.99688 35.0992 6.99688Z" fill="#818A95"/>
<path d="M54.6003 8.66482C54.5838 8.616 54.5673 8.56718 54.559 8.51836C54.3196 7.75355 54.0719 6.99688 53.8325 6.23207C53.6756 5.74389 53.527 5.25571 53.3701 4.7594C53.3123 4.5804 53.2958 4.57227 53.1059 4.57227C52.9738 4.57227 52.8417 4.57227 52.7096 4.57227C52.561 4.57227 52.4042 4.57227 52.2555 4.57227C52.1565 4.57227 52.0904 4.61295 52.0739 4.71058C52.0657 4.74313 52.0491 4.77567 52.0409 4.80008C51.7354 5.77644 51.4299 6.75279 51.1327 7.72101C51.0419 8.00578 50.9593 8.29055 50.8685 8.57532C50.8107 8.77059 50.819 8.77872 51.0336 8.77872C51.2235 8.77872 51.4134 8.77872 51.6116 8.77872C51.7767 8.77872 51.7849 8.77059 51.8345 8.616C51.9005 8.40446 51.9666 8.19291 52.0244 7.98137C52.0409 7.90814 52.0739 7.8756 52.1565 7.8756C52.528 7.88373 52.8995 7.8756 53.2628 7.8756C53.3371 7.8756 53.3784 7.9 53.4032 7.97323C53.461 8.19291 53.5353 8.41259 53.5931 8.62413C53.6178 8.72177 53.6674 8.77872 53.783 8.77059C54.0306 8.76245 54.2701 8.77059 54.5178 8.77059C54.6003 8.78686 54.6251 8.74618 54.6003 8.66482ZM52.3133 7.01315C52.4537 6.53311 52.5858 6.08561 52.7014 5.62998C52.817 6.08561 52.9408 6.53311 53.0894 7.01315C52.8252 7.01315 52.5775 7.01315 52.3133 7.01315Z" fill="#818A95"/>
<path d="M48.6722 14.824C48.2676 13.5385 47.8548 12.2529 47.4503 10.9593C47.3925 10.7884 47.3842 10.7803 47.1943 10.7803C46.9301 10.7803 46.6659 10.7803 46.4017 10.7803C46.1953 10.7803 46.1871 10.7884 46.1293 10.9837C45.9064 11.7078 45.6752 12.4319 45.4523 13.1561C45.2789 13.7093 45.1055 14.2626 44.9404 14.8077C44.8908 14.9705 44.8991 14.9867 45.0725 14.9867C45.2789 14.9867 45.4853 14.9867 45.6834 14.9867C45.8486 14.9867 45.8486 14.9867 45.8981 14.824C45.9641 14.6206 46.0219 14.4172 46.0797 14.2056C46.1045 14.1161 46.1458 14.0836 46.2449 14.0836C46.5916 14.0917 46.9466 14.0917 47.2934 14.0836C47.409 14.0836 47.4503 14.1243 47.475 14.2301C47.5328 14.4416 47.5989 14.6531 47.6649 14.8647C47.6897 14.9542 47.7392 14.9949 47.8301 14.9949C47.9456 14.9867 48.0695 14.9949 48.1851 14.9949C48.3007 14.9949 48.408 14.9949 48.5236 14.9949C48.7135 14.9949 48.7217 14.9867 48.6722 14.824ZM46.4017 13.213C46.5421 12.7493 46.6742 12.2855 46.7815 11.8136C46.9054 12.2773 47.0209 12.7411 47.1696 13.213C46.9054 13.213 46.6659 13.213 46.4017 13.213Z" fill="#818A95"/>
<path d="M56.516 14.824C56.1114 13.5385 55.6986 12.2448 55.294 10.9593C55.2445 10.7884 55.228 10.7803 55.0381 10.7803C54.7739 10.7803 54.5097 10.7803 54.2455 10.7803C54.0473 10.7803 54.0391 10.7884 53.973 10.9837C53.7253 11.781 53.4776 12.5865 53.2217 13.3839C53.0731 13.8721 52.9245 14.3521 52.7759 14.8403C52.7346 14.9705 52.7511 14.9867 52.8832 14.9949C53.1061 14.9949 53.329 14.9949 53.5602 14.9949C53.6593 14.9949 53.7171 14.9542 53.7418 14.8566C53.7996 14.6369 53.8739 14.4172 53.94 14.2056C53.9648 14.1243 53.9978 14.0917 54.0886 14.0917C54.4436 14.0999 54.7986 14.0999 55.1619 14.0917C55.2693 14.0917 55.3105 14.1324 55.3353 14.2301C55.3931 14.4416 55.4674 14.6531 55.5252 14.8647C55.55 14.9623 55.6078 15.003 55.7068 14.9949C55.8224 14.9867 55.9463 14.9949 56.0619 14.9949C56.1774 14.9949 56.2848 14.9949 56.4004 14.9949C56.5572 14.9949 56.5655 14.9786 56.516 14.824ZM54.2455 13.213C54.3776 12.7493 54.5179 12.2936 54.6253 11.8217C54.7409 12.2855 54.873 12.7493 55.0133 13.213C54.7491 13.213 54.5097 13.213 54.2455 13.213Z" fill="#818A95"/>
<path d="M36.974 12.0987C36.9658 11.3827 36.5034 10.8864 35.7769 10.8132C35.2485 10.7562 34.7201 10.7969 34.1917 10.7888C33.9853 10.7888 33.9688 10.7969 33.9688 11.0085C33.9688 11.6349 33.9688 12.2533 33.9688 12.8798C33.9688 13.5144 33.9688 14.1572 33.9688 14.7918C33.9688 14.9952 33.9688 14.9952 34.1834 14.9952C34.3898 14.9952 34.5962 14.9952 34.7944 14.9952C34.9512 14.9952 34.9595 14.9871 34.9595 14.8325C34.9595 14.5315 34.9678 14.2304 34.9595 13.9375C34.9595 13.8317 34.9925 13.7992 35.0916 13.8073C35.331 13.8155 35.5705 13.8155 35.8016 13.7829C36.4209 13.7097 36.8254 13.3436 36.941 12.7415C36.9905 12.5218 36.974 12.3103 36.974 12.0987ZM35.9585 12.595C35.9255 12.774 35.8016 12.8798 35.6283 12.9123C35.4301 12.9449 35.232 12.9286 35.0338 12.9286C34.9678 12.9286 34.9595 12.8879 34.9595 12.8391C34.9595 12.6601 34.9595 12.473 34.9595 12.294C34.9595 12.115 34.9595 11.9441 34.9595 11.7651C34.9595 11.6919 34.9843 11.6594 35.0586 11.6594C35.2154 11.6675 35.3723 11.6594 35.5292 11.6675C35.7686 11.6838 35.909 11.7977 35.9503 12.0336C35.9998 12.2126 35.9998 12.4079 35.9585 12.595Z" fill="#818A95"/>
<path d="M62.6504 18.1277C62.5761 17.5744 62.2294 17.1839 61.6844 17.0537C61.5441 17.0212 61.3955 17.0049 61.2551 17.0049C60.7928 17.0049 60.3304 17.0049 59.8681 17.0049C59.6699 17.0049 59.6699 17.0049 59.6699 17.2002C59.6699 17.8348 59.6699 18.4694 59.6699 19.1122C59.6699 19.7387 59.6699 20.3733 59.6699 20.9998C59.6699 21.2113 59.6699 21.2113 59.8928 21.2113C60.0745 21.2113 60.2644 21.2113 60.446 21.2113C60.6524 21.2113 60.6607 21.2032 60.6607 21.0079C60.6607 20.7313 60.6607 20.4465 60.6607 20.1699C60.6607 20.0072 60.6607 20.0072 60.8175 20.0072C61.0652 20.0072 61.3212 20.0153 61.5689 19.9746C62.1798 19.8851 62.5761 19.4783 62.6504 18.8762C62.6835 18.6321 62.6835 18.3799 62.6504 18.1277ZM61.6597 18.7867C61.6267 18.9739 61.5111 19.0878 61.3212 19.1203C61.123 19.1529 60.9249 19.1285 60.7267 19.1366C60.6607 19.1366 60.6607 19.0959 60.6607 19.0471C60.6607 18.8681 60.6607 18.681 60.6607 18.502C60.6607 18.3311 60.6607 18.1521 60.6607 17.9812C60.6607 17.908 60.6854 17.8755 60.7597 17.8836C60.9166 17.8917 61.0735 17.8755 61.2304 17.8917C61.4698 17.908 61.6101 18.0382 61.6514 18.2741C61.6927 18.4369 61.6927 18.6077 61.6597 18.7867Z" fill="#6D6D6D"/>
</svg>
