<svg width="117" height="30" viewBox="0 0 117 30" fill="none" xmlns="http://www.w3.org/2000/svg">
<path d="M18.5212 17.3648C18.512 17.2781 18.5029 17.1925 18.4938 17.1046C18.4356 16.4973 18.4002 15.8809 18.3796 15.2622C19.0474 15.2132 19.7756 15.1298 20.5256 15.002C20.5906 15.6401 20.6865 16.2736 20.8052 16.9025C20.054 17.1018 19.2912 17.2548 18.5212 17.3602V17.3648ZM14.6515 17.6171C14.6515 16.874 14.68 16.1035 14.7394 15.325C15.4758 15.3433 16.2109 15.341 16.9436 15.325C16.9277 16.059 16.9254 16.7952 16.9436 17.5315C16.1639 17.5863 15.3947 17.6171 14.6515 17.6171ZM15.3776 11.4532C16.0054 11.5673 16.6332 11.6689 17.2747 11.734C17.1446 12.4839 17.0601 13.2179 17.0099 13.8822C16.4038 13.8651 15.7988 13.8297 15.2041 13.7681C15.1048 13.7589 15.0078 13.7475 14.9106 13.7372C15.0186 12.9669 15.1745 12.204 15.3776 11.4532ZM20.4708 11.7956C20.4297 12.3663 20.4217 12.9371 20.4354 13.5158C20.4354 13.5934 20.4354 13.6699 20.4444 13.7441C19.7677 13.8171 19.0747 13.8582 18.3808 13.8799C18.3989 13.1825 18.4447 12.4908 18.52 11.8139L18.7871 11.8242C19.3476 11.8424 19.9115 11.8356 20.4708 11.7956ZM25.1828 5.01989C26.2101 4.22087 27.404 3.65013 28.6357 3.24605L29.2372 3.05657C29.1779 3.24686 29.1177 3.43702 29.0569 3.62731C28.6494 4.85894 28.0855 6.05405 27.283 7.08023C25.9932 8.73079 24.2148 9.62684 22.2857 9.98411C22.651 8.06874 23.5436 6.3029 25.1828 5.01989ZM27.9017 13.4507C28.9737 12.1984 29.6882 10.6803 29.9701 9.0561C29.9701 9.03099 29.9324 8.9899 29.9027 8.96707C29.873 8.94424 29.857 8.94652 29.8479 8.96707C28.3914 12.9314 26.0023 14.9027 22.643 16.2724C22.5049 15.7211 22.385 15.1641 22.2926 14.6025C23.5824 14.2486 24.838 13.7338 25.8562 12.9907C26.9628 12.1789 27.8839 11.1408 28.5581 9.9453C29.1864 8.84505 29.6455 7.65633 29.9198 6.41932C29.9825 6.12597 29.9529 6.02095 29.8536 5.94447L29.808 5.91023C29.7669 5.87941 29.7361 5.91023 29.7246 5.96616C29.6519 6.26717 29.5591 6.56315 29.4473 6.85194C28.1152 10.4293 25.9921 12.5809 22.1419 13.4724C22.0828 12.8422 22.0675 12.2087 22.0962 11.5765C24.8004 11.0057 27.0879 9.12573 28.3332 6.67615C28.8983 5.53195 29.3226 4.32348 29.5968 3.07712C29.6311 2.95783 29.5851 2.82988 29.4826 2.75979C29.4568 2.74073 29.4265 2.72852 29.3948 2.72441C29.3313 2.69199 29.258 2.68423 29.1893 2.70272C27.9422 2.97656 26.7333 3.40129 25.5891 3.96746C23.1498 5.20595 21.2812 7.4786 20.6968 10.1656C20.0648 10.1932 19.4316 10.1767 18.802 10.1165C19.6946 6.29605 21.844 4.18091 25.4076 2.85682C25.697 2.74495 25.9932 2.65192 26.2944 2.5783C26.3448 2.56688 26.38 2.53721 26.3493 2.49497L26.3151 2.45046C26.2386 2.35115 26.1336 2.32033 25.8401 2.38425C24.6031 2.65729 23.4146 3.11638 22.3154 3.74602C21.1194 4.41982 20.0808 5.34098 19.2688 6.44786C18.5337 7.45349 18.0224 8.69312 17.6708 9.96699C17.1102 9.87453 16.5567 9.75468 16.0065 9.61542C17.3763 6.28006 19.351 3.9081 23.2971 2.45502C23.3233 2.44589 23.3187 2.42306 23.2971 2.40023C23.2754 2.3774 23.2331 2.32946 23.208 2.33288C21.5819 2.61391 20.062 3.32893 18.8088 4.40236C17.2656 5.70134 16.0054 7.34391 15.0157 9.34375C14.5249 9.19879 14.0364 9.04127 13.5524 8.87461C12.089 8.37123 8.32329 6.64305 6.86908 5.39543C6.4125 5.00277 6.19219 4.95026 5.94905 5.12148C5.81872 5.23072 5.70114 5.35445 5.59863 5.49017C5.02353 6.3062 4.58589 7.2107 4.30307 8.16805C4.2814 8.25023 4.41722 8.32899 4.55419 8.26849C5.23337 7.96601 8.16349 9.24216 9.01272 9.57661C9.56178 9.79235 10.12 9.98982 10.6793 10.1759C11.847 10.5663 13.0239 10.9213 14.2179 11.2032C14.147 11.3912 14.0786 11.5814 14.0124 11.7739C13.8115 12.3629 13.6426 12.961 13.5022 13.5592C10.6861 13.1425 8.29249 12.4177 6.73781 11.7659C5.64313 11.3173 4.95825 11.2066 4.48571 11.4532C4.40691 11.4954 4.32478 11.6324 4.36352 11.847C4.48628 12.5337 4.7061 13.1994 5.01649 13.824C5.2779 14.3525 5.42398 14.1813 5.67394 14.1231C6.02552 14.0432 6.44442 14.1516 6.78576 14.2189C7.44896 14.3479 8.1053 14.5146 8.76623 14.6584C10.2172 14.9655 11.6893 15.163 13.1699 15.2497C13.0456 16.0487 12.9634 16.826 12.9131 17.5703C12.7237 17.5623 12.5365 17.5532 12.3538 17.5417C10.1953 17.4185 7.75832 16.8181 6.96268 16.6103C6.88389 16.5898 6.88849 16.8158 6.94328 16.8763C7.29486 17.2735 7.98086 17.9869 8.13611 18.1593C8.51653 18.599 9.01112 18.9249 9.56525 19.101C10.2683 19.3293 11.0138 19.3715 11.7453 19.3978C12.0878 19.4103 12.4623 19.416 12.8504 19.4149C12.8504 19.8178 12.8504 20.2025 12.8675 20.5563C12.8938 21.2891 12.9371 22.0402 13.1643 22.7365C13.3393 23.29 13.6636 23.7845 14.1014 24.1656C14.2738 24.3209 14.9872 25.0069 15.3844 25.3585C15.4449 25.4133 15.6721 25.419 15.6503 25.3391C15.4426 24.54 14.8422 22.1065 14.719 19.9491C14.7075 19.7539 14.6973 19.5541 14.6892 19.3521C15.4324 19.3042 16.2131 19.2231 17.0087 19.0999C17.0948 20.5913 17.2935 22.0741 17.6034 23.5356C17.7461 24.1965 17.9128 24.8528 18.0418 25.5172C18.109 25.8596 18.2186 26.2762 18.1375 26.6289C18.0794 26.8789 17.9092 27.0239 18.4367 27.2864C19.0615 27.5963 19.7271 27.816 20.4137 27.9393C20.6283 27.977 20.7652 27.8959 20.8075 27.816C21.0575 27.3401 20.9468 26.6575 20.4959 25.5674C19.8441 24.007 19.1147 21.603 18.6981 18.7745C19.3152 18.6317 19.9247 18.4581 20.5244 18.254C20.7025 18.1924 20.8786 18.1293 21.0529 18.0645C21.3349 19.263 21.6922 20.4479 22.0803 21.6225C22.2663 22.1829 22.4638 22.74 22.6807 23.289C23.014 24.1383 24.2901 27.0695 23.9888 27.7476C23.9271 27.8845 24.0059 28.0204 24.0892 27.9987C25.0465 27.7165 25.9508 27.2789 26.766 26.7031C26.9016 26.601 27.0253 26.4837 27.1347 26.3539C27.3059 26.1096 27.2488 25.8916 26.8607 25.4338C25.6131 23.9785 23.8838 20.2128 23.3815 18.7494C23.2125 18.2594 23.0546 17.7648 22.9078 17.2655C24.9396 16.2781 26.5925 15.01 27.9017 13.4507Z" fill="black"/>
<path d="M18.5212 17.3648C18.512 17.2781 18.5029 17.1925 18.4938 17.1046C18.4356 16.4973 18.4002 15.8809 18.3796 15.2622C19.0474 15.2132 19.7756 15.1298 20.5256 15.002C20.5906 15.6401 20.6865 16.2736 20.8052 16.9025C20.054 17.1018 19.2912 17.2548 18.5212 17.3602V17.3648ZM14.6515 17.6171C14.6515 16.874 14.68 16.1035 14.7394 15.325C15.4758 15.3433 16.2109 15.341 16.9436 15.325C16.9277 16.059 16.9254 16.7952 16.9436 17.5315C16.1639 17.5863 15.3947 17.6171 14.6515 17.6171ZM15.3776 11.4532C16.0054 11.5673 16.6332 11.6689 17.2747 11.734C17.1446 12.4839 17.0601 13.2179 17.0099 13.8822C16.4038 13.8651 15.7988 13.8297 15.2041 13.7681C15.1048 13.7589 15.0078 13.7475 14.9106 13.7372C15.0186 12.9669 15.1745 12.204 15.3776 11.4532ZM20.4708 11.7956C20.4297 12.3663 20.4217 12.9371 20.4354 13.5158C20.4354 13.5934 20.4354 13.6699 20.4444 13.7441C19.7677 13.8171 19.0747 13.8582 18.3808 13.8799C18.3989 13.1825 18.4447 12.4908 18.52 11.8139L18.7871 11.8242C19.3476 11.8424 19.9115 11.8356 20.4708 11.7956ZM25.1828 5.01989C26.2101 4.22087 27.404 3.65013 28.6357 3.24605L29.2372 3.05657C29.1779 3.24686 29.1177 3.43702 29.0569 3.62731C28.6494 4.85894 28.0855 6.05405 27.283 7.08023C25.9932 8.73079 24.2148 9.62684 22.2857 9.98411C22.651 8.06874 23.5436 6.3029 25.1828 5.01989ZM27.9017 13.4507C28.9737 12.1984 29.6882 10.6803 29.9701 9.0561C29.9701 9.03099 29.9324 8.9899 29.9027 8.96707C29.873 8.94424 29.857 8.94652 29.8479 8.96707C28.3914 12.9314 26.0023 14.9027 22.643 16.2724C22.5049 15.7211 22.385 15.1641 22.2926 14.6025C23.5824 14.2486 24.838 13.7338 25.8562 12.9907C26.9628 12.1789 27.8839 11.1408 28.5581 9.9453C29.1864 8.84505 29.6455 7.65633 29.9198 6.41932C29.9825 6.12597 29.9529 6.02095 29.8536 5.94447L29.808 5.91023C29.7669 5.87941 29.7361 5.91023 29.7246 5.96616C29.6519 6.26717 29.5591 6.56315 29.4473 6.85194C28.1152 10.4293 25.9921 12.5809 22.1419 13.4724C22.0828 12.8422 22.0675 12.2087 22.0962 11.5765C24.8004 11.0057 27.0879 9.12573 28.3332 6.67615C28.8983 5.53195 29.3226 4.32348 29.5968 3.07712C29.6311 2.95783 29.5851 2.82988 29.4826 2.75979C29.4568 2.74073 29.4265 2.72852 29.3948 2.72441C29.3313 2.69199 29.258 2.68423 29.1893 2.70272C27.9422 2.97656 26.7333 3.40129 25.5891 3.96746C23.1498 5.20595 21.2812 7.4786 20.6968 10.1656C20.0648 10.1932 19.4316 10.1767 18.802 10.1165C19.6946 6.29605 21.844 4.18091 25.4076 2.85682C25.697 2.74495 25.9932 2.65192 26.2944 2.5783C26.3448 2.56688 26.38 2.53721 26.3493 2.49497L26.3151 2.45046C26.2386 2.35115 26.1336 2.32033 25.8401 2.38425C24.6031 2.65729 23.4146 3.11638 22.3154 3.74602C21.1194 4.41982 20.0808 5.34098 19.2688 6.44786C18.5337 7.45349 18.0224 8.69312 17.6708 9.96699C17.1102 9.87453 16.5567 9.75468 16.0065 9.61542C17.3763 6.28006 19.351 3.9081 23.2971 2.45502C23.3233 2.44589 23.3187 2.42306 23.2971 2.40023C23.2754 2.3774 23.2331 2.32946 23.208 2.33288C21.5819 2.61391 20.062 3.32893 18.8088 4.40236C17.2656 5.70134 16.0054 7.34391 15.0157 9.34375C14.5249 9.19879 14.0364 9.04127 13.5524 8.87461C12.089 8.37123 8.32329 6.64305 6.86908 5.39543C6.4125 5.00277 6.19219 4.95026 5.94905 5.12148C5.81872 5.23072 5.70114 5.35445 5.59863 5.49017C5.02353 6.3062 4.58589 7.2107 4.30307 8.16805C4.2814 8.25023 4.41722 8.32899 4.55419 8.26849C5.23337 7.96601 8.16349 9.24216 9.01272 9.57661C9.56178 9.79235 10.12 9.98982 10.6793 10.1759C11.847 10.5663 13.0239 10.9213 14.2179 11.2032C14.147 11.3912 14.0786 11.5814 14.0124 11.7739C13.8115 12.3629 13.6426 12.961 13.5022 13.5592C10.6861 13.1425 8.29249 12.4177 6.73781 11.7659C5.64313 11.3173 4.95825 11.2066 4.48571 11.4532C4.40691 11.4954 4.32478 11.6324 4.36352 11.847C4.48628 12.5337 4.7061 13.1994 5.01649 13.824C5.2779 14.3525 5.42398 14.1813 5.67394 14.1231C6.02552 14.0432 6.44442 14.1516 6.78576 14.2189C7.44896 14.3479 8.1053 14.5146 8.76623 14.6584C10.2172 14.9655 11.6893 15.163 13.1699 15.2497C13.0456 16.0487 12.9634 16.826 12.9131 17.5703C12.7237 17.5623 12.5365 17.5532 12.3538 17.5417C10.1953 17.4185 7.75832 16.8181 6.96268 16.6103C6.88389 16.5898 6.88849 16.8158 6.94328 16.8763C7.29486 17.2735 7.98086 17.9869 8.13611 18.1593C8.51653 18.599 9.01112 18.9249 9.56525 19.101C10.2683 19.3293 11.0138 19.3715 11.7453 19.3978C12.0878 19.4103 12.4623 19.416 12.8504 19.4149C12.8504 19.8178 12.8504 20.2025 12.8675 20.5563C12.8938 21.2891 12.9371 22.0402 13.1643 22.7365C13.3393 23.29 13.6636 23.7845 14.1014 24.1656C14.2738 24.3209 14.9872 25.0069 15.3844 25.3585C15.4449 25.4133 15.6721 25.419 15.6503 25.3391C15.4426 24.54 14.8422 22.1065 14.719 19.9491C14.7075 19.7539 14.6973 19.5541 14.6892 19.3521C15.4324 19.3042 16.2131 19.2231 17.0087 19.0999C17.0948 20.5913 17.2935 22.0741 17.6034 23.5356C17.7461 24.1965 17.9128 24.8528 18.0418 25.5172C18.109 25.8596 18.2186 26.2762 18.1375 26.6289C18.0794 26.8789 17.9092 27.0239 18.4367 27.2864C19.0615 27.5963 19.7271 27.816 20.4137 27.9393C20.6283 27.977 20.7652 27.8959 20.8075 27.816C21.0575 27.3401 20.9468 26.6575 20.4959 25.5674C19.8441 24.007 19.1147 21.603 18.6981 18.7745C19.3152 18.6317 19.9247 18.4581 20.5244 18.254C20.7025 18.1924 20.8786 18.1293 21.0529 18.0645C21.3349 19.263 21.6922 20.4479 22.0803 21.6225C22.2663 22.1829 22.4638 22.74 22.6807 23.289C23.014 24.1383 24.2901 27.0695 23.9888 27.7476C23.9271 27.8845 24.0059 28.0204 24.0892 27.9987C25.0465 27.7165 25.9508 27.2789 26.766 26.7031C26.9016 26.601 27.0253 26.4837 27.1347 26.3539C27.3059 26.1096 27.2488 25.8916 26.8607 25.4338C25.6131 23.9785 23.8838 20.2128 23.3815 18.7494C23.2125 18.2594 23.0546 17.7648 22.9078 17.2655C24.9396 16.2781 26.5925 15.01 27.9017 13.4507Z" fill="#6D6D6D"/>
<path d="M34.9506 2.33236L34.4831 28.002L34.0156 2.33236H34.9506Z" fill="black"/>
<path d="M34.9506 2.33236L34.4831 28.002L34.0156 2.33236H34.9506Z" fill="#6D6D6D"/>
<path d="M41.6833 20.848H44.5211C45.1474 20.848 45.6093 20.7912 45.9068 20.6775C46.3369 20.5135 46.6644 20.2433 46.889 19.8674C47.1137 19.4916 47.226 19.0195 47.226 18.451C47.226 17.9267 47.1183 17.4831 46.9032 17.1198C46.6882 16.7566 46.3986 16.4913 46.0347 16.3239C45.6708 16.1566 45.0999 16.0729 44.3216 16.0729H41.6833V20.848ZM41.6833 14.4337H44.1512C44.7967 14.4337 45.2555 14.3896 45.5277 14.3011C45.92 14.1684 46.2222 13.9457 46.4343 13.6331C46.6462 13.3204 46.7523 12.8957 46.7523 12.3588C46.7523 11.8598 46.6557 11.4444 46.4627 11.1129C46.2697 10.7811 46.0133 10.5523 45.6939 10.4259C45.3742 10.2996 44.8 10.2363 43.9709 10.2363H41.6833V14.4337ZM40.1768 22.4873V8.59729H44.455C45.3212 8.59729 46.0072 8.73141 46.5132 8.99966C47.0191 9.2679 47.4335 9.68614 47.756 10.2541C48.0784 10.8223 48.2398 11.4504 48.2398 12.1383C48.2398 12.7757 48.1008 13.3502 47.8227 13.8614C47.5447 14.3728 47.1532 14.7829 46.6478 15.0922C47.3082 15.3325 47.8288 15.7418 48.2092 16.3201C48.5897 16.8984 48.78 17.611 48.78 18.4579C48.78 19.2985 48.6077 20.0366 48.2635 20.6716C47.9192 21.3069 47.4596 21.7684 46.8849 22.0558C46.3101 22.3435 45.5205 22.4873 44.5161 22.4873H40.1768Z" fill="#100F0D"/>
<path d="M52.474 16.7834H56.3539L55.1701 12.9367C54.8039 11.7556 54.5354 10.7954 54.365 10.0563C54.2179 10.947 54.0099 11.8314 53.741 12.7093L52.474 16.7834ZM49.2061 22.4873L53.5987 8.59729H55.2102L59.8746 22.4873H58.15L56.8252 18.2804H52.0335L50.7953 22.4873H49.2061Z" fill="#100F0D"/>
<path d="M62.1784 15.2012H65.1251C66.0535 15.2012 66.7325 14.9912 67.1621 14.571C67.5917 14.1511 67.8064 13.5179 67.8064 12.6714C67.8064 12.1218 67.7006 11.6514 67.4889 11.2596C67.2773 10.8681 67.0214 10.5997 66.7215 10.4543C66.4215 10.309 65.8797 10.2363 65.0966 10.2363H62.1784V15.2012ZM60.6719 22.4873V8.59729H64.964C65.9745 8.59729 66.7199 8.68576 67.2 8.86257C67.8569 9.10262 68.3812 9.54802 68.7728 10.1984C69.1644 10.8492 69.3602 11.6482 69.3602 12.5956C69.3602 13.8462 69.0412 14.8664 68.4033 15.656C67.7653 16.4457 66.6631 16.8403 65.0966 16.8403H62.1784V22.4873H60.6719Z" fill="#100F0D"/>
<path d="M72.4009 15.2012H75.3477C76.2761 15.2012 76.9551 14.9912 77.3847 14.571C77.8142 14.1511 78.029 13.5179 78.029 12.6714C78.029 12.1218 77.9231 11.6514 77.7116 11.2596C77.4998 10.8681 77.244 10.5997 76.9442 10.4543C76.6441 10.309 76.1023 10.2363 75.3193 10.2363H72.4009V15.2012ZM70.8945 22.4873V8.59729H75.1865C76.1971 8.59729 76.9425 8.68576 77.4226 8.86257C78.0795 9.10262 78.6037 9.54802 78.9955 10.1984C79.3869 10.8492 79.5828 11.6482 79.5828 12.5956C79.5828 13.8462 79.2637 14.8664 78.6259 15.656C77.9878 16.4457 76.8856 16.8403 75.3193 16.8403H72.4009V22.4873H70.8945Z" fill="#100F0D"/>
<path d="M81.1562 22.4873V8.59729H89.3899V10.2363H82.6628V14.4811H88.9635V16.1202H82.6628V20.848H89.6551V22.4873H81.1562Z" fill="#100F0D"/>
<path d="M92.8013 20.848H95.6391C96.2657 20.848 96.7274 20.7912 97.0248 20.6775C97.4551 20.5135 97.7824 20.2433 98.0071 19.8674C98.2317 19.4916 98.3441 19.0195 98.3441 18.451C98.3441 17.9267 98.2364 17.4831 98.0213 17.1198C97.8063 16.7566 97.5168 16.4913 97.1529 16.3239C96.789 16.1566 96.2181 16.0729 95.4397 16.0729H92.8013V20.848ZM92.8013 14.4337H95.2694C95.9148 14.4337 96.3736 14.3896 96.6459 14.3011C97.0382 14.1684 97.3403 13.9457 97.5523 13.6331C97.7643 13.3204 97.8703 12.8957 97.8703 12.3588C97.8703 11.8598 97.7738 11.4444 97.5807 11.1129C97.3877 10.7811 97.1315 10.5523 96.8121 10.4259C96.4924 10.2996 95.9182 10.2363 95.089 10.2363H92.8013V14.4337ZM91.2949 22.4873V8.59729H95.573C96.4394 8.59729 97.1254 8.73141 97.6313 8.99966C98.1373 9.2679 98.5515 9.68614 98.874 10.2541C99.1965 10.8223 99.3579 11.4504 99.3579 12.1383C99.3579 12.7757 99.219 13.3502 98.9408 13.8614C98.6627 14.3728 98.2712 14.7829 97.766 15.0922C98.4262 15.3325 98.9468 15.7418 99.3273 16.3201C99.7077 16.8984 99.898 17.611 99.898 18.4579C99.898 19.2985 99.7258 20.0366 99.3815 20.6716C99.0372 21.3069 98.5777 21.7684 98.003 22.0558C97.4281 22.3435 96.6386 22.4873 95.6343 22.4873H91.2949Z" fill="#100F0D"/>
<path d="M104.494 22.4873V10.2363H100.742V8.59729H109.772V10.2363H106.001V22.4873H104.494Z" fill="#100F0D"/>
<path d="M111.192 22.4873V8.59729H112.699V22.4873H111.192Z" fill="#100F0D"/>
<path d="M41.6833 20.848H44.5211C45.1474 20.848 45.6093 20.7912 45.9068 20.6775C46.3369 20.5135 46.6644 20.2433 46.889 19.8674C47.1137 19.4916 47.226 19.0195 47.226 18.451C47.226 17.9267 47.1183 17.4831 46.9032 17.1198C46.6882 16.7566 46.3986 16.4913 46.0347 16.3239C45.6708 16.1566 45.0999 16.0729 44.3216 16.0729H41.6833V20.848ZM41.6833 14.4337H44.1512C44.7967 14.4337 45.2555 14.3896 45.5277 14.3011C45.92 14.1684 46.2222 13.9457 46.4343 13.6331C46.6462 13.3204 46.7523 12.8957 46.7523 12.3588C46.7523 11.8598 46.6557 11.4444 46.4627 11.1129C46.2697 10.7811 46.0133 10.5523 45.6939 10.4259C45.3742 10.2996 44.8 10.2363 43.9709 10.2363H41.6833V14.4337ZM40.1768 22.4873V8.59729H44.455C45.3212 8.59729 46.0072 8.73141 46.5132 8.99966C47.0191 9.2679 47.4335 9.68614 47.756 10.2541C48.0784 10.8223 48.2398 11.4504 48.2398 12.1383C48.2398 12.7757 48.1008 13.3502 47.8227 13.8614C47.5447 14.3728 47.1532 14.7829 46.6478 15.0922C47.3082 15.3325 47.8288 15.7418 48.2092 16.3201C48.5897 16.8984 48.78 17.611 48.78 18.4579C48.78 19.2985 48.6077 20.0366 48.2635 20.6716C47.9192 21.3069 47.4596 21.7684 46.8849 22.0558C46.3101 22.3435 45.5205 22.4873 44.5161 22.4873H40.1768Z" fill="black"/>
<path d="M41.6833 20.848H44.5211C45.1474 20.848 45.6093 20.7912 45.9068 20.6775C46.3369 20.5135 46.6644 20.2433 46.889 19.8674C47.1137 19.4916 47.226 19.0195 47.226 18.451C47.226 17.9267 47.1183 17.4831 46.9032 17.1198C46.6882 16.7566 46.3986 16.4913 46.0347 16.3239C45.6708 16.1566 45.0999 16.0729 44.3216 16.0729H41.6833V20.848ZM41.6833 14.4337H44.1512C44.7967 14.4337 45.2555 14.3896 45.5277 14.3011C45.92 14.1684 46.2222 13.9457 46.4343 13.6331C46.6462 13.3204 46.7523 12.8957 46.7523 12.3588C46.7523 11.8598 46.6557 11.4444 46.4627 11.1129C46.2697 10.7811 46.0133 10.5523 45.6939 10.4259C45.3742 10.2996 44.8 10.2363 43.9709 10.2363H41.6833V14.4337ZM40.1768 22.4873V8.59729H44.455C45.3212 8.59729 46.0072 8.73141 46.5132 8.99966C47.0191 9.2679 47.4335 9.68614 47.756 10.2541C48.0784 10.8223 48.2398 11.4504 48.2398 12.1383C48.2398 12.7757 48.1008 13.3502 47.8227 13.8614C47.5447 14.3728 47.1532 14.7829 46.6478 15.0922C47.3082 15.3325 47.8288 15.7418 48.2092 16.3201C48.5897 16.8984 48.78 17.611 48.78 18.4579C48.78 19.2985 48.6077 20.0366 48.2635 20.6716C47.9192 21.3069 47.4596 21.7684 46.8849 22.0558C46.3101 22.3435 45.5205 22.4873 44.5161 22.4873H40.1768Z" fill="#6D6D6D"/>
<path d="M52.474 16.7834H56.3539L55.1701 12.9367C54.8039 11.7556 54.5354 10.7954 54.365 10.0563C54.2179 10.947 54.0099 11.8314 53.741 12.7093L52.474 16.7834ZM49.2061 22.4873L53.5987 8.59729H55.2102L59.8746 22.4873H58.15L56.8252 18.2804H52.0335L50.7953 22.4873H49.2061Z" fill="black"/>
<path d="M52.474 16.7834H56.3539L55.1701 12.9367C54.8039 11.7556 54.5354 10.7954 54.365 10.0563C54.2179 10.947 54.0099 11.8314 53.741 12.7093L52.474 16.7834ZM49.2061 22.4873L53.5987 8.59729H55.2102L59.8746 22.4873H58.15L56.8252 18.2804H52.0335L50.7953 22.4873H49.2061Z" fill="#6D6D6D"/>
<path d="M62.1784 15.2012H65.1251C66.0535 15.2012 66.7325 14.9912 67.1621 14.571C67.5917 14.1511 67.8064 13.5179 67.8064 12.6714C67.8064 12.1218 67.7006 11.6514 67.4889 11.2596C67.2773 10.8681 67.0214 10.5997 66.7215 10.4543C66.4215 10.309 65.8797 10.2363 65.0966 10.2363H62.1784V15.2012ZM60.6719 22.4873V8.59729H64.964C65.9745 8.59729 66.7199 8.68576 67.2 8.86257C67.8569 9.10262 68.3812 9.54802 68.7728 10.1984C69.1644 10.8492 69.3602 11.6482 69.3602 12.5956C69.3602 13.8462 69.0412 14.8664 68.4033 15.656C67.7653 16.4457 66.6631 16.8403 65.0966 16.8403H62.1784V22.4873H60.6719Z" fill="black"/>
<path d="M62.1784 15.2012H65.1251C66.0535 15.2012 66.7325 14.9912 67.1621 14.571C67.5917 14.1511 67.8064 13.5179 67.8064 12.6714C67.8064 12.1218 67.7006 11.6514 67.4889 11.2596C67.2773 10.8681 67.0214 10.5997 66.7215 10.4543C66.4215 10.309 65.8797 10.2363 65.0966 10.2363H62.1784V15.2012ZM60.6719 22.4873V8.59729H64.964C65.9745 8.59729 66.7199 8.68576 67.2 8.86257C67.8569 9.10262 68.3812 9.54802 68.7728 10.1984C69.1644 10.8492 69.3602 11.6482 69.3602 12.5956C69.3602 13.8462 69.0412 14.8664 68.4033 15.656C67.7653 16.4457 66.6631 16.8403 65.0966 16.8403H62.1784V22.4873H60.6719Z" fill="#6D6D6D"/>
<path d="M72.4009 15.2012H75.3477C76.2761 15.2012 76.9551 14.9912 77.3847 14.571C77.8142 14.1511 78.029 13.5179 78.029 12.6714C78.029 12.1218 77.9231 11.6514 77.7116 11.2596C77.4998 10.8681 77.244 10.5997 76.9442 10.4543C76.6441 10.309 76.1023 10.2363 75.3193 10.2363H72.4009V15.2012ZM70.8945 22.4873V8.59729H75.1865C76.1971 8.59729 76.9425 8.68576 77.4226 8.86257C78.0795 9.10262 78.6037 9.54802 78.9955 10.1984C79.3869 10.8492 79.5828 11.6482 79.5828 12.5956C79.5828 13.8462 79.2637 14.8664 78.6259 15.656C77.9878 16.4457 76.8856 16.8403 75.3193 16.8403H72.4009V22.4873H70.8945Z" fill="black"/>
<path d="M72.4009 15.2012H75.3477C76.2761 15.2012 76.9551 14.9912 77.3847 14.571C77.8142 14.1511 78.029 13.5179 78.029 12.6714C78.029 12.1218 77.9231 11.6514 77.7116 11.2596C77.4998 10.8681 77.244 10.5997 76.9442 10.4543C76.6441 10.309 76.1023 10.2363 75.3193 10.2363H72.4009V15.2012ZM70.8945 22.4873V8.59729H75.1865C76.1971 8.59729 76.9425 8.68576 77.4226 8.86257C78.0795 9.10262 78.6037 9.54802 78.9955 10.1984C79.3869 10.8492 79.5828 11.6482 79.5828 12.5956C79.5828 13.8462 79.2637 14.8664 78.6259 15.656C77.9878 16.4457 76.8856 16.8403 75.3193 16.8403H72.4009V22.4873H70.8945Z" fill="#6D6D6D"/>
<path d="M81.1562 22.4873V8.59729H89.3899V10.2363H82.6628V14.4811H88.9635V16.1202H82.6628V20.848H89.6551V22.4873H81.1562Z" fill="black"/>
<path d="M81.1562 22.4873V8.59729H89.3899V10.2363H82.6628V14.4811H88.9635V16.1202H82.6628V20.848H89.6551V22.4873H81.1562Z" fill="#6D6D6D"/>
<path d="M92.8013 20.848H95.6391C96.2657 20.848 96.7274 20.7912 97.0248 20.6775C97.4551 20.5135 97.7824 20.2433 98.0071 19.8674C98.2317 19.4916 98.3441 19.0195 98.3441 18.451C98.3441 17.9267 98.2364 17.4831 98.0213 17.1198C97.8063 16.7566 97.5168 16.4913 97.1529 16.3239C96.789 16.1566 96.2181 16.0729 95.4397 16.0729H92.8013V20.848ZM92.8013 14.4337H95.2694C95.9148 14.4337 96.3736 14.3896 96.6459 14.3011C97.0382 14.1684 97.3403 13.9457 97.5523 13.6331C97.7643 13.3204 97.8703 12.8957 97.8703 12.3588C97.8703 11.8598 97.7738 11.4444 97.5807 11.1129C97.3877 10.7811 97.1315 10.5523 96.8121 10.4259C96.4924 10.2996 95.9182 10.2363 95.089 10.2363H92.8013V14.4337ZM91.2949 22.4873V8.59729H95.573C96.4394 8.59729 97.1254 8.73141 97.6313 8.99966C98.1373 9.2679 98.5515 9.68614 98.874 10.2541C99.1965 10.8223 99.3579 11.4504 99.3579 12.1383C99.3579 12.7757 99.219 13.3502 98.9408 13.8614C98.6627 14.3728 98.2712 14.7829 97.766 15.0922C98.4262 15.3325 98.9468 15.7418 99.3273 16.3201C99.7077 16.8984 99.898 17.611 99.898 18.4579C99.898 19.2985 99.7258 20.0366 99.3815 20.6716C99.0372 21.3069 98.5777 21.7684 98.003 22.0558C97.4281 22.3435 96.6386 22.4873 95.6343 22.4873H91.2949Z" fill="black"/>
<path d="M92.8013 20.848H95.6391C96.2657 20.848 96.7274 20.7912 97.0248 20.6775C97.4551 20.5135 97.7824 20.2433 98.0071 19.8674C98.2317 19.4916 98.3441 19.0195 98.3441 18.451C98.3441 17.9267 98.2364 17.4831 98.0213 17.1198C97.8063 16.7566 97.5168 16.4913 97.1529 16.3239C96.789 16.1566 96.2181 16.0729 95.4397 16.0729H92.8013V20.848ZM92.8013 14.4337H95.2694C95.9148 14.4337 96.3736 14.3896 96.6459 14.3011C97.0382 14.1684 97.3403 13.9457 97.5523 13.6331C97.7643 13.3204 97.8703 12.8957 97.8703 12.3588C97.8703 11.8598 97.7738 11.4444 97.5807 11.1129C97.3877 10.7811 97.1315 10.5523 96.8121 10.4259C96.4924 10.2996 95.9182 10.2363 95.089 10.2363H92.8013V14.4337ZM91.2949 22.4873V8.59729H95.573C96.4394 8.59729 97.1254 8.73141 97.6313 8.99966C98.1373 9.2679 98.5515 9.68614 98.874 10.2541C99.1965 10.8223 99.3579 11.4504 99.3579 12.1383C99.3579 12.7757 99.219 13.3502 98.9408 13.8614C98.6627 14.3728 98.2712 14.7829 97.766 15.0922C98.4262 15.3325 98.9468 15.7418 99.3273 16.3201C99.7077 16.8984 99.898 17.611 99.898 18.4579C99.898 19.2985 99.7258 20.0366 99.3815 20.6716C99.0372 21.3069 98.5777 21.7684 98.003 22.0558C97.4281 22.3435 96.6386 22.4873 95.6343 22.4873H91.2949Z" fill="#6D6D6D"/>
<path d="M104.494 22.4873V10.2363H100.742V8.59729H109.772V10.2363H106.001V22.4873H104.494Z" fill="black"/>
<path d="M104.494 22.4873V10.2363H100.742V8.59729H109.772V10.2363H106.001V22.4873H104.494Z" fill="#6D6D6D"/>
<path d="M111.192 22.4873V8.59729H112.699V22.4873H111.192Z" fill="black"/>
<path d="M111.192 22.4873V8.59729H112.699V22.4873H111.192Z" fill="#6D6D6D"/>
</svg>
